<?xml version="1.0" encoding="UTF-8" standalone="no"?>
<!-- Created with Inkscape (http://www.inkscape.org/) -->

<svg
   xmlns:dc="http://purl.org/dc/elements/1.1/"
   xmlns:cc="http://creativecommons.org/ns#"
   xmlns:rdf="http://www.w3.org/1999/02/22-rdf-syntax-ns#"
   xmlns:svg="http://www.w3.org/2000/svg"
   xmlns="http://www.w3.org/2000/svg"
   xmlns:sodipodi="http://sodipodi.sourceforge.net/DTD/sodipodi-0.dtd"
   xmlns:inkscape="http://www.inkscape.org/namespaces/inkscape"
   width="210mm"
   height="297mm"
   viewBox="0 0 210 297"
   version="1.1"
   id="svg8"
   inkscape:version="0.92.4 5da689c313, 2019-01-14"
   sodipodi:docname="logo.svg"
   inkscape:export-filename="/home/nwillems/Documents/fdf/2019_efteraarslejr/logo.png"
   inkscape:export-xdpi="90"
   inkscape:export-ydpi="90">
  <defs
     id="defs2" />
  <sodipodi:namedview
     id="base"
     pagecolor="#ffffff"
     bordercolor="#666666"
     borderopacity="1.0"
     inkscape:pageopacity="1"
     inkscape:pageshadow="2"
     inkscape:zoom="2.56"
     inkscape:cx="299.29753"
     inkscape:cy="751.75869"
     inkscape:document-units="mm"
     inkscape:current-layer="layer1"
     showgrid="false"
     inkscape:window-width="3838"
     inkscape:window-height="2137"
     inkscape:window-x="0"
     inkscape:window-y="21"
     inkscape:window-maximized="0"
     showguides="true"
     inkscape:guide-bbox="true">
    <sodipodi:guide
       position="161.71111,150.82197"
       orientation="0,1"
       id="guide990"
       inkscape:locked="false" />
    <sodipodi:guide
       position="163.51988,135.85853"
       orientation="0,1"
       id="guide992"
       inkscape:locked="false" />
  </sodipodi:namedview>
  <metadata
     id="metadata5">
    <rdf:RDF>
      <cc:Work
         rdf:about="">
        <dc:format>image/svg+xml</dc:format>
        <dc:type
           rdf:resource="http://purl.org/dc/dcmitype/StillImage" />
        <dc:title />
      </cc:Work>
    </rdf:RDF>
  </metadata>
  <g
     inkscape:label="Layer 1"
     inkscape:groupmode="layer"
     id="layer1">
    <g
       aria-label="20          19"
       transform="matrix(0.26458333,0,0,0.26458334,-24.833309,-34.53519)"
       style="font-style:normal;font-variant:normal;font-weight:normal;font-stretch:normal;font-size:16px;line-height:125%;font-family:Verdana;-inkscape-font-specification:Verdana;letter-spacing:0px;word-spacing:0px;fill:#000000;fill-opacity:1;stroke:none;stroke-width:1px;stroke-linecap:butt;stroke-linejoin:miter;stroke-opacity:1"
       id="flowRoot11859">
      <g
         id="g1005"
         transform="matrix(0.94354409,0,0,0.94354409,27.409215,41.850478)"
         style="stroke-width:1.05983388px">
        <path
           inkscape:connector-curvature="0"
           id="path994"
           style="font-style:normal;font-variant:normal;font-weight:normal;font-stretch:normal;font-size:74.66666412px;font-family:Erasaur;-inkscape-font-specification:Erasaur;stroke-width:1.05983388px"
           d="m 207.392,701.79617 v -1.49333 c 0,-6.19733 4.928,-14.112 10.90133,-15.53067 2.24,-0.52266 2.24,-0.97066 3.584,-0.97066 8.21334,0 12.69334,5.52533 13.36534,7.31733 0.59733,1.64267 1.26933,2.76267 1.26933,4.48 0,3.06133 -0.29867,5.97333 -3.584,9.93067 -3.136,3.808 -8.88533,9.48266 -10.22933,10.67733 -1.344,1.19466 -4.10667,2.83733 -5.30134,4.032 -1.19466,1.19466 -4.704,3.584 -6.19733,5.376 -3.584,4.33066 -3.808,3.584 -3.808,8.66133 0,1.568 0.14933,3.50933 0.14933,3.95733 v 0.672 c 0,0 0.0747,-0.0747 1.12,-0.0747 6.72,0 10.528,0.82133 16.27734,0.82133 0.672,0 6.272,-0.448 6.72,-0.448 3.50933,0 8.36266,0 8.36266,-2.464 0,-1.26933 0.0747,-3.06133 0.0747,-4.256 0,-0.0747 0.14933,-3.06133 -2.98667,-3.06133 -1.71733,0 -5.30133,0.224 -5.6,0.224 -0.29866,0 -5.22666,0.0747 -6.79466,0.448 -1.49334,0.37333 -5.67467,0.224 -6.19734,0.29866 0.896,-0.52266 6.272,-4.33066 7.69067,-4.928 1.49333,-0.59733 4.77867,-1.26933 6.496,-3.06133 1.71733,-1.792 3.73333,-2.38933 4.77867,-4.40533 1.04533,-2.016 2.38933,-2.83734 3.06133,-5.07734 1.19467,-4.10666 2.53867,-2.16533 2.53867,-11.05066 0,-3.808 -0.82134,-8.36267 -1.12,-10.528 -0.37334,-2.38933 0.0747,-4.77867 -2.09067,-6.944 -2.16533,-2.16533 -2.83733,-3.808 -4.704,-3.808 -1.86667,0 -7.54133,-1.568 -10.67733,-1.568 -3.136,0 -10.976,0.82133 -11.94667,0.97067 -2.912,0.448 -8.288,3.88266 -9.184,5.6 -0.97067,1.94133 -1.26933,8.512 -1.26933,12.544 0,5.6 0.59733,4.77866 1.86666,5.824 0,0 3.28534,-2.09067 3.43467,-2.16534 z" />
        <path
           inkscape:connector-curvature="0"
           id="path996"
           style="font-style:normal;font-variant:normal;font-weight:normal;font-stretch:normal;font-size:74.66666412px;font-family:Erasaur;-inkscape-font-specification:Erasaur;stroke-width:1.05983388px"
           d="m 249.35465,713.74284 c -0.0747,0 -0.0747,0.59733 -0.0747,1.41866 0,6.496 0.37334,11.12534 2.16534,14.85867 1.19466,2.53867 -0.82134,1.49333 2.688,5.00267 3.50933,3.50933 4.33066,4.33066 5.824,4.77866 3.43466,1.04534 7.91466,1.49334 8.512,1.49334 1.344,0 3.06133,-0.224 4.10666,-1.49334 1.49334,-1.86666 6.272,-2.98666 7.09333,-6.272 0.82134,-3.28533 1.71734,-3.88266 1.71734,-6.944 0,-2.016 0.224,-4.032 0.224,-7.24266 0,-9.48267 -1.71734,-17.84533 -1.71734,-21.728 0,-3.28533 -0.29866,-6.57067 -1.792,-8.96 -1.49333,-2.38933 -3.136,-5.376 -4.40533,-5.97333 -2.98666,-1.344 -7.09333,-3.21067 -9.632,-3.21067 -2.016,0 -6.42133,2.61333 -7.76533,4.10667 -1.71733,1.94133 -5.52533,5.30133 -6.496,7.76533 -1.792,4.55467 -2.38933,8.66133 -2.38933,11.34933 0,2.61334 0.448,5.376 0.448,5.45067 0,0.224 0.37333,2.24 0.59733,2.24 -0.224,0.82133 -0.37333,1.49333 -0.37333,1.49333 0,0 1.26933,1.64267 1.26933,1.86667 z m 7.168,-7.09333 c 0.37333,-1.12 2.61333,-7.01867 2.98667,-9.184 0.37333,-2.16534 0.37333,-4.032 0.97066,-5.74934 0.59734,-1.71733 -0.29866,-1.64266 1.568,-2.38933 1.49334,-0.59733 1.41867,-0.97067 1.792,-0.97067 0.52267,0 3.65867,1.12 4.704,2.53867 0.82134,1.12 2.464,1.94133 3.43467,4.256 0.97067,2.31467 0.37333,-1.41867 2.31466,5.52533 1.94134,6.944 1.94134,7.91467 1.94134,9.03467 0,0.672 0.224,0.82133 0.224,1.49333 0,0.448 -0.0747,1.04533 -0.37334,2.16533 -0.896,3.21067 -1.41866,3.06134 -1.41866,9.33334 0,1.41866 0.0747,2.38933 0.0747,3.28533 0,3.06133 -1.11999,4.85333 -1.79199,5.45067 -1.04534,0.97066 -6.64534,2.61333 -7.84,2.61333 -2.688,-0.37333 -2.38934,-0.29867 -4.18134,-1.94133 -1.94133,-1.792 -4.18133,-2.31467 -4.18133,-5.52534 0,-6.72 0.74667,-7.69066 0.82133,-8.96 0.0747,-1.568 0.52267,-3.808 0.52267,-5.30133 0,-0.74667 -0.224,-2.016 -2.016,-4.704 0.224,-0.37333 0.37333,-0.672 0.448,-0.97066 z" />
      </g>
      <g
         id="g1009"
         transform="translate(-20)">
        <path
           inkscape:connector-curvature="0"
           id="path998"
           style="font-style:normal;font-variant:normal;font-weight:normal;font-stretch:normal;font-size:74.66666412px;font-family:Erasaur;-inkscape-font-specification:Erasaur"
           d="m 658.30247,703.58817 c 0.0747,0.0747 0.0747,0.14934 0.0747,0.37334 0,1.04533 -0.52267,1.94133 -0.52267,6.04799 0,1.26934 0.29867,2.16534 0.29867,2.16534 l 0.97067,-0.29867 c 1.792,-1.344 3.808,-2.24 5.30133,-3.73333 1.568,-1.568 5.74933,-4.704 6.496,-6.34667 0.29867,-0.672 2.76267,-2.24 2.76267,-2.24 0,0 0.0747,0.896 0.0747,1.94134 0,4.48 -1.04533,6.86933 -1.04533,10.37866 v 2.98667 c 0,2.464 -0.97067,5.97333 -1.12,7.69066 -0.448,5.00267 -1.86667,7.24267 -2.53867,10.22934 -0.14933,0.74666 -0.74666,3.584 -0.74666,4.18133 0,3.808 6.496,1.12 11.12533,2.83733 0.14933,-0.896 0.37333,-5.45066 0.37333,-5.824 0,-3.06133 -0.29866,-5.67466 -0.29866,-12.17066 0,-4.40534 0.97066,-9.78134 0.97066,-16.65067 0,-1.26933 -0.0747,-2.76266 -0.0747,-4.62933 0,-3.584 0.896,-5.89867 0.896,-7.84 0,-2.09067 -0.14934,-4.10667 -0.224,-6.72 -0.0747,-2.61333 -0.896,-2.76267 -0.896,-2.76267 0,0 -1.568,0.0747 -1.71734,0.0747 h -1.86666 c -0.896,0 -1.64267,0.0747 -2.53867,0.0747 -0.74667,0 -1.41867,-0.0747 -1.41867,-0.0747 -0.59733,0.74667 -2.98666,3.06133 -3.95733,4.032 -1.19467,1.19467 -3.28533,4.55467 -5.824,7.76533 -0.59733,0.74667 -2.38933,2.31467 -2.464,2.53867 -0.0747,0.224 -2.31467,3.21067 -2.688,3.36 0.14933,0.448 0.448,2.464 0.59733,2.61333 z" />
        <path
           inkscape:connector-curvature="0"
           id="path1000"
           style="font-size:77.33333588px"
           d="m 711.13976,708.0735 c 0.696,-0.54133 1.00534,-1.00533 1.00534,-1.23733 0.232,0.0773 0.54133,0.232 0.77333,0.38667 -0.15467,3.712 -0.54133,5.87733 -0.54133,6.65066 0,0.928 0.15466,1.856 0.15466,2.24267 0,2.70667 -2.01066,6.88267 -3.17066,12.14133 -0.696,3.17067 -1.08267,2.552 -1.624,3.63467 -0.30934,0.61867 -1.77867,4.56267 -2.62934,6.10933 0.38667,0 6.728,1.624 6.65067,1.624 -0.232,0 7.34667,-0.464 7.34667,-0.928 0,-0.0773 -0.0773,-0.15466 -0.0773,-0.232 0,-0.0773 0.30934,-0.0773 0.30934,-0.38666 0,-1.54667 -0.85067,-5.87734 -0.85067,-10.44 0,-3.17067 1.54667,-10.05334 2.16533,-12.064 0.696,-2.24267 3.63467,-4.09867 3.63467,-7.03734 0,-1.16 -0.696,-2.088 -0.85067,-4.48533 -0.232,-3.55733 -0.61866,-3.63467 -1.00533,-8.19733 -0.38667,-4.56267 -1.16,-2.93867 -2.552,-5.104 -1.70133,-2.62934 -5.104,-8.584 -8.19733,-8.584 -1.23734,0 -2.39734,0.38666 -3.40267,0.38666 -0.54133,0 -1.16,-0.0773 -1.93333,-0.0773 -1.46934,0 -3.09334,0.15467 -3.40267,0.15467 -0.464,0 -11.05867,2.39733 -12.296,3.712 -1.23733,1.31466 -2.16533,2.39733 -3.78933,4.408 -1.856,2.24266 -2.32,3.944 -2.32,6.032 0,1.54666 0.464,3.48 0.928,5.87733 0.61866,3.17067 2.16533,3.016 3.40266,4.71733 1.23734,1.70134 2.552,1.77867 3.40267,2.24267 1.16,0.61867 4.56267,2.24267 7.888,2.24267 2.62933,0 5.95467,-0.464 6.80533,-0.464 1.16,0 2.70667,-2.24267 4.176,-3.32534 z m -1.392,-15.544 c 1.16,1.00534 3.78934,6.728 3.78934,9.12534 -1.93334,1.392 -0.232,1.93333 -5.568,2.62933 -3.40267,0.464 -2.70667,0.85067 -4.79467,0.85067 -0.85067,0 -2.01067,-0.30934 -4.408,-0.696 -3.40267,-0.54134 -3.944,-2.01067 -6.18667,-5.568 -0.696,-1.08267 -0.928,-1.93334 -0.928,-2.552 0,-1.54667 1.31467,-2.32 2.16534,-3.944 1.00533,-1.856 4.09866,-2.32 7.192,-2.32 5.568,0 7.192,1.23733 8.73866,2.47466 z" />
      </g>
    </g>
    <g
       id="g2394"
       inkscape:label="drawing">
      <g
         style="display:inline;stroke-width:2.24624848"
         transform="matrix(0.44587446,0,0,0.44450006,59.39187,97.169945)"
         inkscape:label="pensel_hakke"
         id="layer1-0">
        <g
           transform="matrix(0.94336548,0.33278107,-0.33073265,0.94336548,58.024115,-21.724547)"
           style="stroke-width:2.24624848"
           id="g13212">
          <path
             sodipodi:nodetypes="csccsccccsccsccc"
             inkscape:connector-curvature="0"
             id="path13170"
             d="m 129.16712,91.072649 c 0,0 -12.61006,-12.370118 -15.21827,-14.142495 -2.60821,-1.772378 -11.70164,-9.396033 -11.70164,-9.396033 l 3.19964,-5.045199 c 0,0 8.84112,-0.112846 18.16629,9.592311 9.32518,9.705157 12.3003,13.189712 12.3003,13.189712 l 1.33821,-0.837391 9.16035,10.203419 -1.41182,3.308537 c 0,0 14.95882,13.95522 15.55351,19.69458 0.59469,5.73935 -0.94877,23.17036 -0.94877,23.17036 l -2.60281,-18.52744 c 0,0 -13.07153,-16.90468 -17.42455,-18.67851 -1.08825,-0.44346 -5.34277,3.81995 -5.34277,3.81995 l -8.57747,-11.886957 z"
             style="fill:none;fill-rule:evenodd;stroke:#000000;stroke-width:4.49249697;stroke-linecap:butt;stroke-linejoin:miter;stroke-miterlimit:4;stroke-dasharray:none;stroke-opacity:1" />
          <path
             sodipodi:nodetypes="ccccc"
             inkscape:connector-curvature="0"
             id="path13172"
             d="m 138.89739,85.891435 3.23467,-2.288963 6.02529,4.621101 -2.79038,5.036497 z"
             style="fill:none;fill-rule:evenodd;stroke:#000000;stroke-width:4.49249697;stroke-linecap:butt;stroke-linejoin:miter;stroke-miterlimit:4;stroke-dasharray:none;stroke-opacity:1" />
          <path
             sodipodi:nodetypes="ccccccscc"
             inkscape:connector-curvature="0"
             id="path13174"
             d="m 127.16687,97.630604 -65.235289,66.063216 -3.771607,1.3141 5.816687,5.82426 6.551678,6.55926 0.270844,-3.53017 c 0,0 19.558772,-23.21124 29.925277,-34.28615 10.21507,-10.91313 32.76748,-33.15726 32.76748,-33.15726 z"
             style="fill:none;fill-rule:evenodd;stroke:#000000;stroke-width:4.49249697;stroke-linecap:butt;stroke-linejoin:miter;stroke-miterlimit:4;stroke-dasharray:none;stroke-opacity:1" />
        </g>
        <g
           transform="matrix(0.34427258,0.94177274,0.93597569,-0.34427259,-91.862081,86.958303)"
           style="stroke-width:2.24624848"
           id="g13207">
          <path
             sodipodi:nodetypes="ccccccsccscc"
             inkscape:connector-curvature="0"
             id="path13176"
             d="M 55.117732,71.826736 30.057894,99.186427 73.655808,131.77344 c 5.403335,2.88322 5.403335,2.88322 8.962506,0.82318 l 4.645269,-3.9235 39.151897,41.49088 c 0,0 3.00335,5.16618 8.79761,2.39547 5.79425,-2.77071 -0.48859,-8.11928 -0.48859,-8.11928 L 95.38772,120.1889 c 0,0 3.330382,-3.36406 3.564837,-5.55039 0.188403,-1.75688 -0.331735,-3.85035 -1.853772,-4.96616 C 83.897616,97.47937 55.117732,71.826736 55.117732,71.826736 Z"
             style="fill:#ffffff;fill-opacity:1;fill-rule:evenodd;stroke:#000000;stroke-width:4.49249697;stroke-linecap:butt;stroke-linejoin:miter;stroke-miterlimit:4;stroke-dasharray:none;stroke-opacity:1" />
          <ellipse
             inkscape:transform-center-y="-0.51676432"
             inkscape:transform-center-x="0.46508789"
             transform="matrix(0.79463703,0.60708483,-0.60471713,0.79644032,0,0)"
             ry="2.5361903"
             rx="3.1412659"
             cy="53.428116"
             cx="203.84738"
             id="path13182"
             style="opacity:1;fill:#000002;fill-opacity:1;fill-rule:nonzero;stroke:none;stroke-width:4.49250698;stroke-linecap:round;stroke-linejoin:miter;stroke-miterlimit:4;stroke-dasharray:none;stroke-dashoffset:0;stroke-opacity:1" />
          <path
             inkscape:connector-curvature="0"
             id="path13184"
             d="m 87.238035,101.1109 -24.636944,22.39207 11.287756,7.9371 21.522882,-22.88967 z"
             style="fill:none;fill-rule:evenodd;stroke:#000000;stroke-width:4.49249697;stroke-linecap:butt;stroke-linejoin:miter;stroke-miterlimit:4;stroke-dasharray:none;stroke-opacity:1"
             sodipodi:nodetypes="ccccc" />
          <g
             style="stroke-width:2.24624848;stroke-miterlimit:4;stroke-dasharray:none"
             id="g13810">
            <path
               style="fill:none;fill-rule:evenodd;stroke:#000000;stroke-width:2.24624848;stroke-linecap:round;stroke-linejoin:miter;stroke-miterlimit:4;stroke-dasharray:none;stroke-opacity:1"
               d="M 38.121315,98.621314 62.140166,116.7267"
               id="path13186"
               inkscape:connector-curvature="0" />
            <path
               style="fill:none;fill-rule:evenodd;stroke:#000000;stroke-width:2.24624848;stroke-linecap:round;stroke-linejoin:miter;stroke-miterlimit:4;stroke-dasharray:none;stroke-opacity:1"
               d="M 40.216477,94.433397 66.310444,114.2167"
               id="path13188"
               inkscape:connector-curvature="0" />
            <path
               style="fill:none;fill-rule:evenodd;stroke:#000000;stroke-width:2.24624848;stroke-linecap:round;stroke-linejoin:miter;stroke-miterlimit:4;stroke-dasharray:none;stroke-opacity:1"
               d="M 45.638541,92.075764 67.259854,110.94361"
               id="path13190"
               inkscape:connector-curvature="0" />
            <path
               style="fill:none;fill-rule:evenodd;stroke:#000000;stroke-width:2.24624848;stroke-linecap:round;stroke-linejoin:miter;stroke-miterlimit:4;stroke-dasharray:none;stroke-opacity:1"
               d="M 48.643207,88.498727 71.124924,108.54968"
               id="path13192"
               inkscape:connector-curvature="0" />
            <path
               style="fill:none;fill-rule:evenodd;stroke:#000000;stroke-width:2.24624848;stroke-linecap:round;stroke-linejoin:miter;stroke-miterlimit:4;stroke-dasharray:none;stroke-opacity:1"
               d="M 54.076431,85.858203 73.925579,103.28616"
               id="path13194"
               inkscape:connector-curvature="0" />
            <path
               style="fill:none;fill-rule:evenodd;stroke:#000000;stroke-width:2.24624848;stroke-linecap:round;stroke-linejoin:miter;stroke-miterlimit:4;stroke-dasharray:none;stroke-opacity:1"
               d="M 55.647071,82.319404 78.783978,100.09308"
               id="path13196"
               inkscape:connector-curvature="0" />
          </g>
        </g>
      </g>
      <g
         transform="translate(-6.787901)"
         inkscape:label="dino-faces"
         id="g2312">
        <g
           style="display:inline;stroke-width:1.87257409"
           id="layer1-6-7"
           inkscape:label="face_right"
           transform="matrix(0.11135779,0,0,0.1117235,88.964398,43.483164)">
          <g
             inkscape:export-ydpi="90"
             inkscape:export-xdpi="90"
             inkscape:export-filename="/home/nwillems/Documents/fdf/efteraarslejr15/udkast/001.png"
             transform="matrix(1.0071005,-0.20451411,0.20451411,1.0071005,-123.01294,47.336774)"
             style="stroke-width:12.65111065;stroke-miterlimit:4;stroke-dasharray:none"
             id="g4878-0-3-5">
            <g
               id="g5010-85-6-3"
               style="stroke-width:12.65111065">
              <path
                 inkscape:connector-curvature="0"
                 id="path3995-2-3-7-5"
                 d="m 442.53112,559.61041 c 0,0 -19.52071,180.46968 -105.90065,174.37485 -86.37993,-6.09482 -91.59474,-214.04676 -91.59474,-214.04676 0,0 69.21933,-16.8979 103.10722,-10.25807 34.97328,6.8525 94.38817,49.92998 94.38817,49.92998 z"
                 style="fill:#ffffff;fill-opacity:1;stroke:#000000;stroke-width:12.65111065;stroke-linecap:butt;stroke-linejoin:round;stroke-miterlimit:4;stroke-dasharray:none;stroke-opacity:1"
                 sodipodi:nodetypes="cscac" />
              <ellipse
                 transform="matrix(-0.99989863,0.01423846,0.01443545,0.9998958,0,0)"
                 id="path3997-5-1-5-6"
                 style="fill:#000000;fill-opacity:1;fill-rule:nonzero;stroke:none;stroke-width:12.65111065;stroke-linecap:square;stroke-linejoin:bevel;stroke-miterlimit:4;stroke-dasharray:none;stroke-dashoffset:0;stroke-opacity:1"
                 cx="-353.22348"
                 cy="583.52063"
                 rx="13.864707"
                 ry="7.4190459" />
              <ellipse
                 transform="matrix(-0.99989863,0.01423846,0.01443546,0.9998958,0,0)"
                 id="path3999-3-1-3-2"
                 style="fill:#000000;fill-opacity:1;fill-rule:nonzero;stroke:none;stroke-width:12.65111065;stroke-linecap:square;stroke-linejoin:bevel;stroke-miterlimit:4;stroke-dasharray:none;stroke-dashoffset:0;stroke-opacity:1"
                 cx="-290.18146"
                 cy="575.34003"
                 rx="8.6066036"
                 ry="12.817216" />
            </g>
            <path
               inkscape:export-ydpi="90"
               inkscape:export-xdpi="90"
               inkscape:export-filename="/home/nwillems/Documents/fdf/efteraarslejr15/udkast/001.png"
               sodipodi:nodetypes="cc"
               inkscape:connector-curvature="0"
               id="path4013-9-1-8-6-5-9"
               d="m 402.01929,646.04195 c -47.60233,116.0784 -105.26988,31.1306 -105.26988,31.1306"
               style="fill:none;stroke:#000000;stroke-width:12.65111065;stroke-linecap:round;stroke-linejoin:miter;stroke-miterlimit:4;stroke-dasharray:none;stroke-opacity:1" />
          </g>
        </g>
        <g
           id="g2247">
          <path
             style="fill:none;stroke:#000000;stroke-width:1.99999988;stroke-linecap:round;stroke-linejoin:round;stroke-miterlimit:10;stroke-dasharray:none;stroke-opacity:1"
             d="m 91.772191,110.61165 c 7.943658,-0.79297 15.137969,-1.23897 21.776359,0.14279"
             id="path4883"
             inkscape:connector-curvature="0"
             sodipodi:nodetypes="cc" />
          <path
             style="fill:none;stroke:#000000;stroke-width:1.99999988;stroke-linecap:round;stroke-linejoin:round;stroke-miterlimit:4;stroke-dasharray:none;stroke-opacity:1"
             d="m 141.36615,108.68917 c 2.96671,-1.2706 5.3533,-1.16968 8.14707,-1.00814 6.31962,0.36541 18.80493,2.47065 27.80271,2.28214 8.33697,-0.0814 15.29847,-0.25002 20.554,-2.09242 0.20786,-0.16502 0.59421,-0.20099 0.89642,-0.32603 1.3532,-0.70287 1.9155,-2.22399 1.74349,-3.49697 -0.14134,-1.04592 -0.83136,-2.63826 -0.80012,-3.4619 -0.46834,-1.473397 -4.94457,-0.49815 -6.31867,-1.251049 -1.68149,-0.939269 -2.07488,-3.221242 -1.52888,-4.988469 0.30174,-1.497566 1.36287,-3.47269 -0.081,-4.679728 -1.32644,-0.681574 -2.86891,-0.982771 -4.36468,-0.774017 -1.3563,-0.03704 -2.70564,0.103863 -4.01424,0.49568 -1.46483,0.146189 -2.61108,1.222913 -3.41217,2.436542 -1.13189,1.231151 -1.70706,2.880585 -1.92402,4.544544 -0.29109,2.335789 -2.48035,3.739437 -4.45363,4.391747 -7.58668,1.5317 -10.7765,1.19526 -19.17364,-2.379278 -3.90143,-1.912779 -7.82587,-3.948117 -11.3467,-6.582719 -3.14472,-1.636718 -5.79788,-4.035515 -8.25611,-6.611569 -2.61763,-2.509323 -4.63303,-5.587061 -7.19011,-8.138457 -2.4412,-2.977483 -5.45594,-5.429964 -8.98055,-6.857859 -6.24052,-1.970605 -12.92417,-2.560262 -19.406978,-1.783068 -7.086291,0.476802 -13.664554,3.749355 -19.573153,7.661627 -2.456751,1.277162 -4.181815,3.513149 -6.469356,5.03201 -2.226798,2.09644 -4.374614,4.377225 -6.1591,6.898431 -1.681338,2.372281 -3.23893,4.845375 -4.846104,7.271389 -2.174359,3.806264 -5.414738,6.843293 -9.112743,8.982713 -3.861957,2.04376 -13.039531,2.3473 -16.108458,2.6347 -3.793353,0.29544 -13.147423,-2.24748 -13.944697,5.29565 -0.179635,1.69956 2.001618,2.70275 3.545731,2.72044 1.543926,-0.0241 3.026248,-0.56955 4.508584,-0.97161 5.005137,-1.2607 13.140826,-0.8944 16.275114,-1.04891 3.134293,-0.15452 17.282163,-0.0315 18.138499,-0.064"
             id="path4889"
             inkscape:connector-curvature="0"
             sodipodi:nodetypes="cscccscccccccccccccccccccccscczc" />
          <path
             style="fill:none;stroke:#000000;stroke-width:0.99999994;stroke-linecap:round;stroke-linejoin:round;stroke-miterlimit:10;stroke-dasharray:none;stroke-opacity:1"
             d="m 199.84736,105.55845 c -2.89591,-1.13573 -8.80884,-1.15726 -11.8868,-1.6582 0.22283,0.5405 0.4682,1.24352 1.05942,1.69273 2.47717,1.31054 6.04265,1.76625 8.7111,2.22658"
             id="path4919"
             inkscape:connector-curvature="0"
             sodipodi:nodetypes="cccc" />
          <g
             id="g13818"
             transform="matrix(0.46617051,0,0,-0.48741275,-1.7328032,266.95799)"
             style="stroke-width:0.74008292">
            <ellipse
               ry="5.7583151"
               rx="5.55651"
               transform="scale(1,-1)"
               cy="-350.92871"
               cx="400.70966"
               id="path13812"
               style="opacity:1;fill:none;fill-opacity:1;fill-rule:nonzero;stroke:#000000;stroke-width:2.09787273;stroke-linecap:round;stroke-linejoin:miter;stroke-miterlimit:10;stroke-dasharray:none;stroke-dashoffset:0;stroke-opacity:1" />
            <ellipse
               ry="1.4312959"
               rx="1.7944341"
               transform="scale(1,-1)"
               cy="-348.086"
               cx="402.46252"
               id="path13814"
               style="opacity:1;fill:#000000;fill-opacity:1;fill-rule:nonzero;stroke:none;stroke-width:2.09787297;stroke-linecap:round;stroke-linejoin:miter;stroke-miterlimit:10;stroke-dasharray:none;stroke-dashoffset:0;stroke-opacity:1" />
          </g>
          <g
             inkscape:label="spikes"
             id="g2217">
            <path
               style="fill:none;fill-rule:evenodd;stroke:#000000;stroke-width:1;stroke-linecap:round;stroke-linejoin:round;stroke-miterlimit:4;stroke-dasharray:none;stroke-opacity:1"
               d="m 70.372255,83.606347 c 0,0 -3.36574,-1.362472 -5.962035,-4.422418 0,0 0.969015,-0.638457 2.449868,-2.318317 1.133026,-1.285293 0.853499,-2.72287 0.200723,-3.742399 1.062384,0.713154 2.21332,0.760422 3.789933,0.08523 2.182496,-0.934663 2.463972,-2.046917 2.463972,-2.046917 2.641144,2.477644 3.823523,6.362521 3.823523,6.362521 z"
               id="path1886-9"
               inkscape:connector-curvature="0"
               sodipodi:nodetypes="csscsscc" />
            <path
               style="fill:none;fill-rule:evenodd;stroke:#000000;stroke-width:1;stroke-linecap:round;stroke-linejoin:round;stroke-miterlimit:4;stroke-dasharray:none;stroke-opacity:1"
               d="m 84.23242,72.760559 c 0,0 -2.707501,-2.419498 -4.117298,-6.17669 0,0 1.127742,-0.273524 3.089071,-1.354284 1.500648,-0.826912 1.723256,-2.274396 1.453321,-3.454519 0.758968,1.030154 1.826255,1.463496 3.538278,1.360679 2.369942,-0.142327 3.010651,-1.094078 3.010651,-1.094078 1.648744,3.224283 1.449057,7.280194 1.449057,7.280194 z"
               id="path1886-9-4"
               inkscape:connector-curvature="0"
               sodipodi:nodetypes="csscsscc" />
            <path
               style="fill:none;fill-rule:evenodd;stroke:#000000;stroke-width:1;stroke-linecap:round;stroke-linejoin:round;stroke-miterlimit:4;stroke-dasharray:none;stroke-opacity:1"
               d="m 99.460533,68.075327 c 0,0 -1.650991,-3.234001 -1.608761,-7.24676 0,0 1.150412,0.152211 3.369678,-0.147291 1.69801,-0.229156 2.42834,-1.498557 2.60281,-2.696521 0.33572,1.234726 1.17448,2.024265 2.80809,2.54667 2.26139,0.723164 3.20258,0.06703 3.20258,0.06703 0.37304,3.602108 -1.27792,7.312176 -1.27792,7.312176 z"
               id="path1886-9-4-8"
               inkscape:connector-curvature="0"
               sodipodi:nodetypes="csscsscc" />
            <path
               style="fill:none;fill-rule:evenodd;stroke:#000000;stroke-width:1;stroke-linecap:round;stroke-linejoin:round;stroke-miterlimit:4;stroke-dasharray:none;stroke-opacity:1"
               d="m 116.82772,69.119326 c 0,0 0.0446,-3.630778 1.95021,-7.162426 0,0 0.94724,0.670316 3.05075,1.438508 1.60944,0.587759 2.8468,-0.195638 3.55895,-1.174613 -0.27775,1.249043 0.097,2.338302 1.29949,3.561211 1.66465,1.692866 2.8031,1.550386 2.8031,1.550386 -1.34694,3.361564 -4.53538,5.876335 -4.53538,5.876335 z"
               id="path1886-9-4-8-1"
               inkscape:connector-curvature="0"
               sodipodi:nodetypes="csscsscc" />
            <path
               style="fill:none;fill-rule:evenodd;stroke:#000000;stroke-width:1;stroke-linecap:round;stroke-linejoin:round;stroke-miterlimit:4;stroke-dasharray:none;stroke-opacity:1"
               d="m 129.09132,78.532474 c 0,0 1.43456,-3.335655 4.54958,-5.865577 0,0 0.61747,0.982509 2.26511,2.499137 1.26064,1.160403 2.7039,0.911848 3.73722,0.281131 -0.73583,1.046814 -0.80779,2.196485 -0.16669,3.787231 0.88752,2.20208 1.99348,2.507408 1.99348,2.507408 -2.53386,2.58726 -6.44324,3.68586 -6.44324,3.68586 z"
               id="path1886-9-4-8-1-2"
               inkscape:connector-curvature="0"
               sodipodi:nodetypes="csscsscc" />
            <g
               transform="matrix(0.02198845,0,0,-0.02198845,98.572841,71.69872)"
               id="g1706"
               style="fill:#000000;fill-opacity:1;stroke-width:16.04377556">
              <path
                 d="m 428.461,330.867 c 6.427,34.394 9.58,68.918 9.619,103.175 -54.951,19.394 -112.196,30.422 -169.754,33.086 V 330.867 h 160.135"
                 style="fill:#000000;fill-opacity:1;fill-rule:nonzero;stroke:none;stroke-width:1.60437751"
                 id="path1125"
                 inkscape:connector-curvature="0" />
              <path
                 d="m 268.326,265.154 v -76.27664 c 0,0 99.133,-37.35836 126.268,28.14964 6.598,15.929 12.416,31.986 17.479,48.127 H 268.326"
                 style="fill:#000000;fill-opacity:1;fill-rule:nonzero;stroke:none;stroke-width:1.60437751"
                 id="path1127"
                 inkscape:connector-curvature="0"
                 sodipodi:nodetypes="ccccc" />
              <path
                 d="M 213.565,330.867 V 467.141 C 156.009,464.503 98.7645,453.502 43.8094,434.136 c 0.034,-34.288 3.1867,-68.843 9.6191,-103.269 H 213.565"
                 style="fill:#000000;fill-opacity:1;fill-rule:nonzero;stroke:none;stroke-width:1.60437751"
                 id="path1141"
                 inkscape:connector-curvature="0" />
              <path
                 d="M 69.8172,265.154 C 74.8793,249.013 80.698,232.956 87.2957,217.027 114.431,151.519 213.565,194.94972 213.565,194.94972 V 265.154 H 69.8172"
                 style="fill:#000000;fill-opacity:1;fill-rule:nonzero;stroke:none;stroke-width:1.60437751"
                 id="path1143"
                 inkscape:connector-curvature="0"
                 sodipodi:nodetypes="ccccc" />
            </g>
          </g>
          <path
             inkscape:label="thagomizer"
             sodipodi:nodetypes="cccccccccccccccccccccccccc"
             d="m 36.351954,106.323 h 2.940632 c 0,0 3.868198,-0.0745 5.795958,0.11979 0.01756,-0.11311 -0.03189,-0.23539 -0.148479,-0.29724 l -2.61042,-1.38537 c -0.136218,-0.0724 -0.190686,-0.23971 -0.122992,-0.37831 l 1.297756,-2.65527 c 0.100563,-0.20615 -0.06993,-0.44085 -0.297104,-0.40882 l -2.926325,0.41357 c -0.152807,0.0216 -0.295014,-0.0817 -0.321619,-0.23374 L 39.44831,98.586748 C 39.40862,98.360821 39.132541,98.271119 38.967623,98.43061 l -2.124295,2.05465 c -0.110699,0.10726 -0.286805,0.10726 -0.397682,0 l -2.124289,-2.05465 c -0.164923,-0.159484 -0.440997,-0.06978 -0.480546,0.156138 l -0.510908,2.910862 c -0.02671,0.15205 -0.169106,0.25531 -0.321768,0.23374 l -2.92646,-0.41357 c -0.227047,-0.032 -0.397537,0.20267 -0.296958,0.40882 l 1.297743,2.65527 c 0.06774,0.13853 0.01287,0.30588 -0.122928,0.37831 l -2.610547,1.38537 c -0.115205,0.0613 -0.164778,0.18136 -0.148833,0.29348 1.927895,-0.19332 5.796089,-0.11603 5.796089,-0.11603 z"
             style="fill:#000000;fill-opacity:1;fill-rule:nonzero;stroke:none;stroke-width:0.03527777"
             id="path1803-7"
             inkscape:connector-curvature="0" />
          <g
             id="text2101"
             style="font-style:normal;font-variant:normal;font-weight:normal;font-stretch:normal;font-size:3.42342234px;line-height:125%;font-family:Verdana;-inkscape-font-specification:Verdana;letter-spacing:0px;word-spacing:0px;fill:#000000;fill-opacity:1;stroke:none;stroke-width:1.2365793px;stroke-linecap:butt;stroke-linejoin:miter;stroke-opacity:1"
             aria-label="JOMSBORG">
            <path
               inkscape:connector-curvature="0"
               id="path2195"
               style="font-style:normal;font-variant:normal;font-weight:normal;font-stretch:normal;font-family:Arial;-inkscape-font-specification:Arial;stroke-width:1.2365793px"
               d="m 26.658418,113.4421 0.281535,-0.089 q 0.05901,0.2748 0.168797,0.36112 0.109783,0.0863 0.272889,0.0583 0.120269,-0.0206 0.198262,-0.09 0.07771,-0.071 0.09455,-0.17056 0.01656,-0.10121 -0.01905,-0.3088 l -0.285444,-1.664 0.31962,-0.0548 0.282336,1.64588 q 0.052,0.30315 0.0064,0.48227 -0.04395,0.17883 -0.188778,0.29356 -0.143184,0.11445 -0.357363,0.15119 -0.317973,0.0546 -0.519039,-0.0992 -0.199418,-0.15404 -0.254722,-0.51598 z" />
            <path
               inkscape:connector-curvature="0"
               id="path2197"
               style="font-style:normal;font-variant:normal;font-weight:normal;font-stretch:normal;font-family:Arial;-inkscape-font-specification:Arial;stroke-width:1.2365793px"
               d="m 28.261873,112.67212 q -0.139863,-0.59389 0.100108,-1.00417 0.239588,-0.41191 0.743983,-0.5307 0.330297,-0.0778 0.63268,0.0176 0.302384,0.0954 0.50736,0.34591 0.20622,0.24853 0.290522,0.60649 0.08545,0.36284 0.0065,0.68369 -0.079,0.32085 -0.312595,0.53214 -0.233981,0.20967 -0.544753,0.28286 -0.336806,0.0793 -0.640339,-0.0209 -0.303533,-0.10025 -0.506499,-0.34955 -0.202966,-0.2493 -0.276921,-0.56332 z m 0.326566,-0.0718 q 0.101544,0.43118 0.391217,0.62571 0.290917,0.19252 0.64074,0.11013 0.35633,-0.0839 0.526738,-0.38851 0.172034,-0.30499 0.06359,-0.76545 -0.06859,-0.29125 -0.218806,-0.48428 -0.148972,-0.19503 -0.367313,-0.26898 -0.217097,-0.0759 -0.453024,-0.0204 -0.335178,0.0789 -0.523201,0.36708 -0.186778,0.28613 -0.05994,0.82469 z" />
            <path
               inkscape:connector-curvature="0"
               id="path2199"
               style="font-style:normal;font-variant:normal;font-weight:normal;font-stretch:normal;font-family:Arial;-inkscape-font-specification:Arial;stroke-width:1.2365793px"
               d="m 31.189651,113.12596 -0.465031,-2.40602 0.479236,-0.0926 0.898768,1.59351 q 0.124774,0.22275 0.18372,0.33394 0.01565,-0.13922 0.05347,-0.41043 l 0.252513,-1.78538 0.428358,-0.0828 0.465031,2.40602 -0.306908,0.0593 -0.389217,-2.01377 -0.309942,2.14891 -0.287213,0.0555 -1.091756,-1.91375 0.395879,2.04824 z" />
            <path
               inkscape:connector-curvature="0"
               id="path2201"
               style="font-style:normal;font-variant:normal;font-weight:normal;font-stretch:normal;font-family:Arial;-inkscape-font-specification:Arial;stroke-width:1.2365793px"
               d="m 33.827479,111.88297 0.301796,-0.0567 q 0.03969,0.18085 0.129529,0.29124 0.09134,0.10856 0.264917,0.16534 0.173411,0.0551 0.38135,0.0346 0.184649,-0.0182 0.320629,-0.0871 0.13598,-0.0688 0.194825,-0.1704 0.06035,-0.10338 0.04918,-0.2165 -0.01133,-0.11478 -0.08624,-0.19305 -0.07508,-0.0799 -0.233868,-0.12306 -0.101924,-0.0286 -0.445834,-0.0752 -0.344074,-0.0483 -0.485878,-0.10658 -0.183699,-0.0743 -0.283501,-0.20046 -0.0983,-0.12803 -0.114886,-0.29605 -0.01823,-0.18465 0.07081,-0.35469 0.08887,-0.1717 0.28195,-0.27475 0.193075,-0.10304 0.439274,-0.12734 0.271152,-0.0268 0.48613,0.041 0.216476,0.066 0.344679,0.22465 0.128202,0.15868 0.1577,0.37245 l -0.307114,0.0538 q -0.04778,-0.22877 -0.204158,-0.33259 -0.154719,-0.10399 -0.435852,-0.0762 -0.292778,0.0289 -0.41685,0.15032 -0.122573,0.1196 -0.107631,0.27098 0.01297,0.13142 0.116165,0.2069 0.10153,0.0756 0.502984,0.12673 0.402954,0.0492 0.555911,0.10134 0.222616,0.0771 0.339031,0.21849 0.116252,0.1397 0.135626,0.336 0.01921,0.19463 -0.07517,0.37864 -0.09454,0.18234 -0.294623,0.29951 -0.19858,0.11534 -0.459751,0.14112 -0.331038,0.0327 -0.565135,-0.0416 -0.232433,-0.0745 -0.37957,-0.25481 -0.145637,-0.18215 -0.176427,-0.42603 z" />
            <path
               inkscape:connector-curvature="0"
               id="path2203"
               style="font-style:normal;font-variant:normal;font-weight:normal;font-stretch:normal;font-family:Arial;-inkscape-font-specification:Arial;stroke-width:1.2365793px"
               d="m 36.276826,112.44603 -0.161167,-2.44525 0.917386,-0.0605 q 0.280219,-0.0185 0.453632,0.0455 0.174971,0.0622 0.280269,0.21104 0.106857,0.14707 0.11796,0.31554 0.01033,0.15679 -0.06561,0.30084 -0.07594,0.14405 -0.242137,0.24044 0.226128,0.0504 0.354888,0.19941 0.130429,0.14887 0.1445,0.36238 0.01132,0.1718 -0.05228,0.32508 -0.06205,0.15151 -0.163521,0.23861 -0.101474,0.0871 -0.260519,0.13946 -0.157487,0.0506 -0.391003,0.066 z m 0.230141,-1.4391 0.528748,-0.0348 q 0.215169,-0.0142 0.306706,-0.0487 0.121012,-0.0448 0.17712,-0.13396 0.05778,-0.0892 0.04931,-0.21768 -0.008,-0.12176 -0.07245,-0.20965 -0.06454,-0.0896 -0.175153,-0.11577 -0.110727,-0.0279 -0.374266,-0.0105 l -0.488717,0.0322 z m 0.07443,1.12922 0.608811,-0.0401 q 0.156789,-0.0103 0.219403,-0.0262 0.110435,-0.0274 0.182415,-0.079 0.07198,-0.0516 0.114526,-0.14324 0.04243,-0.0933 0.03474,-0.21002 -0.009,-0.13677 -0.08567,-0.23223 -0.07676,-0.0971 -0.204498,-0.12892 -0.126178,-0.0336 -0.359695,-0.0182 l -0.565443,0.0373 z" />
            <path
               inkscape:connector-curvature="0"
               id="path2205"
               style="font-style:normal;font-variant:normal;font-weight:normal;font-stretch:normal;font-family:Arial;-inkscape-font-specification:Arial;stroke-width:1.2365793px"
               d="m 38.418353,111.11337 q -0.0272,-0.60952 0.284759,-0.96813 0.311882,-0.36028 0.82956,-0.38338 0.338996,-0.0151 0.618423,0.13471 0.279427,0.14984 0.434336,0.43407 0.156505,0.28249 0.172899,0.64987 0.01662,0.3724 -0.120563,0.67301 -0.137179,0.30062 -0.405937,0.46488 -0.268833,0.16258 -0.58779,0.17682 -0.345675,0.0154 -0.625326,-0.13943 -0.27965,-0.15484 -0.432815,-0.43748 -0.153165,-0.28264 -0.167546,-0.60494 z m 0.334209,-0.01 q 0.01975,0.44253 0.268278,0.68745 0.250126,0.24317 0.609161,0.22715 0.365715,-0.0163 0.5897,-0.28399 0.225655,-0.26775 0.204568,-0.74034 -0.01334,-0.29892 -0.125114,-0.51648 -0.110181,-0.2193 -0.311003,-0.33248 -0.199226,-0.11493 -0.441366,-0.10413 -0.344006,0.0153 -0.582244,0.26358 -0.236644,0.24649 -0.21198,0.79924 z" />
            <path
               inkscape:connector-curvature="0"
               id="path2207"
               style="font-style:normal;font-variant:normal;font-weight:normal;font-stretch:normal;font-family:Arial;-inkscape-font-specification:Arial;stroke-width:1.2365793px"
               d="m 41.239703,112.18866 -0.07182,-2.4495 1.086069,-0.0318 q 0.327491,-0.01 0.49988,0.0522 0.17234,0.0602 0.279163,0.22427 0.106822,0.16409 0.11275,0.36627 0.0076,0.26066 -0.155873,0.44439 -0.163517,0.18373 -0.514651,0.24252 0.13047,0.058 0.199069,0.11624 0.145846,0.12617 0.278564,0.31794 l 0.445621,0.65418 -0.407694,0.012 -0.339092,-0.50011 q -0.148491,-0.2164 -0.243818,-0.33066 -0.09533,-0.11427 -0.170218,-0.1589 -0.07322,-0.0447 -0.148948,-0.0609 -0.05548,-0.0101 -0.180797,-0.006 l -0.375947,0.011 0.03189,1.08774 z m 0.284025,-1.37795 0.696755,-0.0204 q 0.222227,-0.007 0.346219,-0.0553 0.123944,-0.0505 0.186169,-0.15263 0.06218,-0.10383 0.0587,-0.22246 -0.0051,-0.17377 -0.135364,-0.282 -0.128598,-0.10827 -0.40095,-0.10029 l -0.775286,0.0227 z" />
            <path
               inkscape:connector-curvature="0"
               id="path2209"
               style="font-style:normal;font-variant:normal;font-weight:normal;font-stretch:normal;font-family:Arial;-inkscape-font-specification:Arial;stroke-width:1.2365793px"
               d="m 44.833024,111.13836 -0.0051,-0.28747 1.037866,-0.0201 0.01614,0.90921 q -0.235617,0.19477 -0.487938,0.29622 -0.252351,0.0998 -0.519764,0.10452 -0.361007,0.006 -0.659562,-0.1421 -0.296914,-0.15021 -0.452526,-0.44002 -0.155613,-0.28981 -0.162022,-0.65082 -0.0063,-0.35766 0.136908,-0.6695 0.144901,-0.31354 0.423014,-0.46894 0.278112,-0.15541 0.644134,-0.16191 0.265741,-0.005 0.481214,0.0784 0.217115,0.0814 0.341852,0.233 0.124737,0.1516 0.192639,0.39783 l -0.291058,0.0854 q -0.05848,-0.18621 -0.142272,-0.29172 -0.08379,-0.10551 -0.237013,-0.16632 -0.153248,-0.0625 -0.338765,-0.0592 -0.222287,0.004 -0.38319,0.0754 -0.160932,0.0697 -0.259253,0.18182 -0.09665,0.11206 -0.14946,0.24508 -0.08956,0.22896 -0.08484,0.4947 0.0058,0.32758 0.121712,0.54621 0.117567,0.2186 0.335067,0.32173 0.217501,0.10314 0.459844,0.0988 0.210587,-0.004 0.409723,-0.0875 0.199105,-0.0854 0.301095,-0.17921 l -0.0081,-0.45628 z" />
          </g>
        </g>
        <g
           transform="translate(3.6666667e-8,3.1750001)"
           id="g1116"
           inkscape:label="face_left-hat">
          <g
             transform="matrix(-0.11113443,0,0,0.11150063,117.18032,42.284589)"
             inkscape:label="face_left"
             id="layer1-6"
             style="display:inline;stroke-width:1.8763274">
            <g
               id="g4878-0-3"
               style="stroke-width:12.6764679;stroke-miterlimit:4;stroke-dasharray:none"
               transform="matrix(1.0071005,-0.20451411,0.20451411,1.0071005,-123.01294,47.336774)"
               inkscape:export-filename="/home/nwillems/Documents/fdf/efteraarslejr15/udkast/001.png"
               inkscape:export-xdpi="90"
               inkscape:export-ydpi="90">
              <g
                 style="stroke-width:12.6764679"
                 id="g5010-85-6">
                <path
                   sodipodi:nodetypes="cscac"
                   style="fill:#ffffff;fill-opacity:1;stroke:#000000;stroke-width:12.6764679;stroke-linecap:butt;stroke-linejoin:round;stroke-miterlimit:4;stroke-dasharray:none;stroke-opacity:1"
                   d="m 442.53112,559.61041 c 0,0 -19.52071,180.46968 -105.90065,174.37485 -86.37993,-6.09482 -91.59474,-214.04676 -91.59474,-214.04676 0,0 69.21933,-16.8979 103.10722,-10.25807 34.97328,6.8525 94.38817,49.92998 94.38817,49.92998 z"
                   id="path3995-2-3-7"
                   inkscape:connector-curvature="0" />
                <ellipse
                   ry="7.4190459"
                   rx="13.864707"
                   cy="583.52063"
                   cx="-353.22348"
                   style="fill:#000000;fill-opacity:1;fill-rule:nonzero;stroke:none;stroke-width:12.6764679;stroke-linecap:square;stroke-linejoin:bevel;stroke-miterlimit:4;stroke-dasharray:none;stroke-dashoffset:0;stroke-opacity:1"
                   id="path3997-5-1-5"
                   transform="matrix(-0.99989863,0.01423846,0.01443545,0.9998958,0,0)" />
                <ellipse
                   ry="12.817216"
                   rx="8.6066036"
                   cy="575.34003"
                   cx="-290.18146"
                   style="fill:#000000;fill-opacity:1;fill-rule:nonzero;stroke:none;stroke-width:12.6764679;stroke-linecap:square;stroke-linejoin:bevel;stroke-miterlimit:4;stroke-dasharray:none;stroke-dashoffset:0;stroke-opacity:1"
                   id="path3999-3-1-3"
                   transform="matrix(-0.99989863,0.01423846,0.01443546,0.9998958,0,0)" />
              </g>
              <path
                 style="fill:none;stroke:#000000;stroke-width:12.6764679;stroke-linecap:round;stroke-linejoin:miter;stroke-miterlimit:4;stroke-dasharray:none;stroke-opacity:1"
                 d="m 402.01929,646.04195 c -47.60233,116.0784 -105.26988,31.1306 -105.26988,31.1306"
                 id="path4013-9-1-8-6-5"
                 inkscape:connector-curvature="0"
                 sodipodi:nodetypes="cc"
                 inkscape:export-filename="/home/nwillems/Documents/fdf/efteraarslejr15/udkast/001.png"
                 inkscape:export-xdpi="90"
                 inkscape:export-ydpi="90" />
            </g>
          </g>
          <g
             style="stroke-width:2.00527453"
             transform="matrix(0.50090713,0,0,0.49647239,28.086007,-4.0714614)"
             inkscape:label="hat"
             id="layer1-2">
            <g
               transform="matrix(0.34457419,0,0,-0.34377297,23.355198,219.11979)"
               id="g7719"
               style="stroke-width:2.05540824">
              <g
                 id="g7901"
                 style="stroke-width:2.05540824" />
              <g
                 id="g8093"
                 style="stroke-width:2.05540824">
                <g
                   id="g8095"
                   style="stroke-width:2.05540824" />
              </g>
              <g
                 id="g8099"
                 style="stroke-width:2.05540824">
                <g
                   id="g8101"
                   style="stroke-width:2.05540824">
                  <path
                     style="fill:none;stroke:#000000;stroke-width:3.91318893;stroke-linecap:round;stroke-linejoin:round;stroke-miterlimit:10;stroke-dasharray:none;stroke-opacity:1"
                     d="m 195.49802,63.707874 c 1.37685,9.471973 4.90089,17.666214 11.40762,25.16135 6.42146,6.918757 12.43076,8.842724 25.54885,9.244657 17.68439,0.541842 36.56145,-22.133431 40.6591,-36.635001"
                     id="path8103"
                     inkscape:connector-curvature="0"
                     sodipodi:nodetypes="ccsc" />
                </g>
              </g>
              <g
                 id="g8105"
                 style="stroke-width:2.05540824">
                <g
                   id="g8107"
                   style="stroke-width:2.05540824" />
              </g>
              <g
                 id="g8111"
                 style="stroke-width:2.05540824">
                <g
                   id="g8113"
                   style="stroke-width:2.05540824" />
              </g>
              <g
                 id="g8117"
                 style="stroke-width:2.05540824">
                <g
                   id="g8119"
                   style="stroke-width:2.05540824">
                  <path
                     style="fill:#ffffff;fill-opacity:1;stroke:#000000;stroke-width:3.91318893;stroke-linecap:round;stroke-linejoin:round;stroke-miterlimit:10;stroke-dasharray:none;stroke-opacity:1"
                     d="m 195.49802,63.707874 c 22.70299,-19.81624 77.61557,-2.228994 77.61557,-2.228994 0,0 63.93607,-12.907451 93.23553,-29.504777 C 346.11947,28.780928 250.72882,20.316362 234.99877,20.999734 221.04236,21.606052 151.76618,20.339619 98.525492,33.896345 125.65905,45.525611 195.49802,63.707874 195.49802,63.707874"
                     id="path8121"
                     inkscape:connector-curvature="0"
                     sodipodi:nodetypes="cccscc" />
                </g>
              </g>
              <g
                 id="g8123"
                 style="stroke-width:2.05540824">
                <g
                   id="g8125"
                   style="stroke-width:2.05540824">
                  <path
                     style="fill:none;stroke:#000000;stroke-width:3.91318893;stroke-linecap:round;stroke-linejoin:round;stroke-miterlimit:10;stroke-dasharray:none;stroke-opacity:1"
                     d="M 181.91294,59.301097 C 221.15875,33.894924 259.21271,41.572493 286.07346,57.692208"
                     id="path8127"
                     inkscape:connector-curvature="0"
                     sodipodi:nodetypes="cc" />
                </g>
              </g>
              <g
                 id="g8135"
                 style="stroke-width:2.05540824">
                <g
                   id="g8137"
                   style="stroke-width:2.05540824">
                  <path
                     style="fill:none;stroke:#000000;stroke-width:3.91318893;stroke-linecap:round;stroke-linejoin:round;stroke-miterlimit:10;stroke-dasharray:none;stroke-opacity:1"
                     d="m 230.42837,97.628051 c 0,0 -7.77065,-12.68383 -10.69362,-18.677309 -3.96639,-8.133009 -6.4163,-13.392881 -8.21935,-21.96365"
                     id="path8139"
                     inkscape:connector-curvature="0"
                     sodipodi:nodetypes="csc" />
                </g>
              </g>
              <g
                 id="g8141"
                 style="stroke-width:2.05540824">
                <g
                   id="g8143"
                   style="stroke-width:2.05540824">
                  <path
                     style="fill:none;stroke:#000000;stroke-width:3.91318893;stroke-linecap:round;stroke-linejoin:round;stroke-miterlimit:10;stroke-dasharray:none;stroke-opacity:1"
                     d="m 233.32891,97.650673 c 0,0 3.9332,-5.500252 8.99953,-13.09273 5.06633,-7.592478 8.2637,-27.661968 8.2637,-27.661968"
                     id="path8145"
                     inkscape:connector-curvature="0"
                     sodipodi:nodetypes="csc" />
                </g>
              </g>
              <path
                 style="opacity:1;fill:#000000;fill-opacity:1;fill-rule:nonzero;stroke:none;stroke-width:5.82635117;stroke-linecap:round;stroke-linejoin:miter;stroke-miterlimit:4;stroke-dasharray:none;stroke-dashoffset:0;stroke-opacity:1"
                 id="path10652"
                 transform="scale(1,-1)"
                 sodipodi:type="arc"
                 sodipodi:cx="232.21129"
                 sodipodi:cy="-98.937637"
                 sodipodi:rx="5.8394003"
                 sodipodi:ry="2.1103678"
                 sodipodi:start="2.7894898"
                 sodipodi:end="0.36777263"
                 d="m 226.73014,-98.20983 a 5.8394003,2.1103678 0 0 1 2.01385,-2.42587 5.8394003,2.1103678 0 0 1 7.00779,0.0198 5.8394003,2.1103678 0 0 1 1.90843,2.43698"
                 sodipodi:open="true" />
            </g>
          </g>
        </g>
      </g>
    </g>
    <g
       id="g2193"
       transform="translate(-4.7919433)"
       inkscape:label="title">
      <g
         id="text2137"
         style="font-style:normal;font-variant:normal;font-weight:normal;font-stretch:normal;font-size:22.57777786px;line-height:125%;font-family:Verdana;-inkscape-font-specification:Verdana;letter-spacing:0.79374999px;word-spacing:0px;fill:#000000;fill-opacity:1;stroke:none;stroke-width:1px;stroke-linecap:butt;stroke-linejoin:miter;stroke-opacity:1"
         aria-label=" EFTERARSLEJR">
        <path
           inkscape:connector-curvature="0"
           id="path2151"
           style="font-style:normal;font-variant:normal;font-weight:normal;font-stretch:normal;font-size:22.57777786px;font-family:Erasaur;-inkscape-font-specification:Erasaur;letter-spacing:0.79374999px;stroke-width:1px"
           d="m 26.479862,55.755507 c 1.515776,1.975626 1.189723,1.028045 4.688766,6.347307 0.620397,0.943131 0.861099,1.514462 1.059626,1.816264 l 1.02986,1.565598 c 0.48391,0.735642 1.070594,1.052359 1.318753,1.429612 0.03722,0.05659 0.07445,0.113176 0.09281,0.182171 l 0.790225,-0.195518 c 0,0 0.604105,-0.478459 0.641831,-0.503275 0.03773,-0.02482 0.477017,-0.178661 0.477017,-0.178661 L 37.640007,65.7371 c 0,0 1.681782,-1.592731 3.417144,-2.734262 0.245214,-0.161304 0.370798,-0.216889 0.597149,-0.365784 0.735643,-0.483911 0.836912,-0.658625 0.78728,-0.734075 -0.02482,-0.03773 -0.106219,-0.03823 -0.131035,-0.07595 0.01886,-0.01241 -0.128028,-0.564375 -0.214883,-0.696413 -0.06204,-0.09431 -0.248159,-0.377253 -0.732571,-1.031491 -0.291838,-0.40257 -0.49237,-0.378757 -0.605546,-0.304309 -0.05659,0.03722 -0.100768,0.09331 -0.119631,0.105718 -0.01886,0.01241 -0.106721,0.04318 -0.163309,0.0804 -0.05659,0.03722 -0.0819,0.0809 -0.107222,0.124581 -0.03823,0.10622 -0.964,0.958421 -1.165535,1.145041 -0.201536,0.186621 -1.088581,0.851199 -1.333795,1.012502 -0.697917,0.459094 -1.191792,0.324549 -1.553127,0.02174 -0.372238,-0.565879 -1.100861,-1.221622 -1.80517,-1.758236 l 0.269091,-0.987749 0.97741,-1.102366 1.374465,-0.498761 c 0,0 0.975906,-0.858155 1.013632,-0.88297 0.03773,-0.02482 -0.226288,-0.878084 -0.226288,-0.878084 l -0.477957,-0.685509 c -0.292339,-0.321166 -0.80752,-1.063263 -0.939558,-0.976408 -0.264077,0.173712 -1.318442,1.569921 -2.582238,2.401254 -1.07517,0.707253 -1.413695,0.767789 -1.833623,0.827823 0,0 -0.378693,-0.534609 -0.403509,-0.572334 -0.02482,-0.03773 -0.916685,-1.640046 -0.978724,-1.734359 -0.04963,-0.07545 -0.715213,-0.799688 -0.938556,-1.139215 -0.124079,-0.188626 -0.111671,-0.169764 0.09582,-0.306251 0.396115,-0.260567 1.325835,-0.73702 1.439011,-0.811468 0.132039,-0.08685 1.107443,-0.863606 1.107443,-0.863606 l 0.812598,-0.777753 0.461163,-0.654677 -0.336018,-0.346483 -0.918188,-1.395835 -2.357829,1.550994 -4.580673,3.553689 z" />
        <path
           inkscape:connector-curvature="0"
           id="path2153"
           style="font-style:normal;font-variant:normal;font-weight:normal;font-stretch:normal;font-size:22.57777786px;font-family:Erasaur;-inkscape-font-specification:Erasaur;letter-spacing:0.79374999px;stroke-width:1px"
           d="m 37.044074,46.150423 c 0.451258,0.834012 1.30523,1.937873 1.949884,3.129319 1.514937,2.799898 2.890198,5.341649 4.116102,8.888362 l 1.514937,2.799897 1.787168,-0.966981 -0.331155,-1.181374 c 0,0 -1.035666,-1.724335 -1.100132,-1.843479 -0.06446,-0.119145 -0.709792,-1.643947 -0.709792,-1.643947 l -0.698375,-1.290733 0.779618,-0.883901 2.213961,-0.889855 1.454485,-0.632952 0.287118,-0.181021 c 0,0 -0.303143,-0.939823 -0.335376,-0.999395 -0.12893,-0.238289 -0.826632,-1.195666 -0.966307,-1.453813 l -0.03223,-0.05957 c -0.0091,0.0306 -0.768589,0.287505 -0.808304,0.308994 -0.139002,0.07521 -1.367858,1.125167 -1.703804,1.358278 -0.355802,0.243855 -0.975603,0.758905 -1.015318,0.780394 -0.03971,0.02149 -0.319349,0.121448 -0.319349,0.121448 l -0.532604,-0.22524 c 0,0 -0.325589,-0.696641 -0.45452,-0.934931 -0.128931,-0.238289 -0.5398,-0.760433 -0.647243,-0.959007 -0.214884,-0.397149 -0.451931,-1.167369 -0.432073,-1.178113 l 0.01074,0.01986 c -0.0967,-0.178716 -0.340553,-0.534519 -0.469484,-0.772808 -0.214885,-0.397149 -0.381614,-1.179744 1.147408,-2.00705 0.09929,-0.05372 0.178717,-0.0967 0.209318,-0.08759 0.133151,0.05631 1.548595,-0.221796 1.548595,-0.221796 0,0 0.287117,-0.181021 0.604836,-0.352929 0.119145,-0.06446 2.145276,-0.827021 2.655718,-0.974851 0.03971,-0.02149 -0.02475,-0.140633 -0.121449,-0.31935 -0.182652,-0.337576 -0.523205,-0.872096 -0.630648,-1.07067 L 45.800916,42.02847 c -0.139675,-0.258146 -0.437252,-0.713236 -1.072689,-0.369421 -0.139002,0.07521 -0.316088,0.222367 -0.494805,0.319065 -1.151731,0.623166 -1.923582,0.809753 -2.777451,1.271755 -0.178717,0.0967 -0.18783,0.127299 -0.803411,0.460371 -0.675152,0.365303 -1.639053,0.861169 -1.678768,0.882658 -0.05957,0.03223 -1.691429,1.428594 -1.909861,1.546781 z" />
        <path
           inkscape:connector-curvature="0"
           id="path2155"
           style="font-style:normal;font-variant:normal;font-weight:normal;font-stretch:normal;font-size:22.57777786px;font-family:Erasaur;-inkscape-font-specification:Erasaur;letter-spacing:0.79374999px;stroke-width:1px"
           d="m 50.925317,39.750532 c -0.01674,-0.04194 -1.065184,0.376578 -1.170029,0.41843 -0.104844,0.04185 -0.507395,0.129611 -0.507395,0.129611 l -0.146782,0.05859 c -0.293564,0.117185 0.05747,1.727388 0.266731,2.251609 -0.01674,-0.04194 0.665742,1.241479 0.854462,1.166146 -0.02097,0.0084 0.365013,-0.364497 0.935573,-0.883974 0.14264,-0.129869 0.989938,-0.686883 1.220768,-1.022127 0.10493,-0.163436 0.432062,-0.318331 0.767564,-0.452256 0.230658,-0.09207 0.469686,-0.163178 0.658406,-0.238511 0.188719,-0.07533 1.048616,-0.661686 1.467993,-0.829092 0.0084,0.02097 1.128005,-0.280105 1.228449,-0.02848 -0.0084,-0.02097 0.238511,0.658405 0.455967,1.446766 0.117099,0.415149 0.191484,1.941304 0.59326,2.94781 0.108814,0.272596 0.238597,0.536821 0.447855,1.061043 1.481547,3.711491 1.070626,3.778281 1.547734,4.973507 0.09207,0.230658 0.330757,0.645893 0.623719,1.379804 l 0.242739,0.608097 c 0.159036,0.398409 0.284763,0.469772 0.410577,0.41955 0.146782,-0.05859 0.297878,-0.289078 0.465629,-0.35604 l 0.146782,-0.05859 c 0.545191,-0.217628 1.593807,-0.879314 2.118029,-1.088572 0.251627,-0.100444 0.469686,-0.163179 0.658405,-0.238511 0.293565,-0.117185 0.285281,-0.259739 0.201577,-0.469428 -0.150665,-0.377439 -0.200974,-0.381668 -0.753932,-1.036103 -0.699568,-0.839014 -1.067948,-1.640059 -1.662327,-3.007264 -0.380893,-0.893292 -1.583455,-1.896172 -2.320044,-3.741433 -0.200888,-0.503253 -0.242567,-0.851268 -0.485306,-1.459365 -0.25948,-0.650035 -0.414374,-0.977167 -0.514818,-1.228794 -0.24274,-0.608097 -0.03685,-1.249417 -0.09527,-1.639369 -0.0334,-0.205461 0.243859,-0.972508 0.243859,-0.972508 l 1.509759,-0.602664 c 0.155152,-0.03762 2.326856,0.04358 2.414873,0.08137 0.08802,0.0378 1.53487,-0.539756 1.576808,-0.556497 0.04194,-0.01674 0.135131,-1.366688 -0.01553,-1.744128 -0.334812,-0.838755 -1.668106,-0.768426 -1.743439,-0.957146 -0.01674,-0.04194 -0.08802,-0.0378 -0.255768,0.02917 -1.321039,0.527331 -1.677769,1.034381 -3.040746,1.578452 -0.167751,0.06696 -0.259996,0.07948 -0.322903,0.104586 -0.209689,0.0837 -0.629239,0.49428 -0.713114,0.527761 -0.08388,0.03348 -1.447025,0.820723 -1.606405,0.908654 -0.159381,0.08793 -1.694337,0.749273 -1.883057,0.824606 -1.048444,0.418516 -2.000586,1.017382 -2.986123,1.410787 -0.440346,0.175777 -0.826157,0.305474 -0.834527,0.284505 z" />
        <path
           inkscape:connector-curvature="0"
           id="path2157"
           style="font-style:normal;font-variant:normal;font-weight:normal;font-stretch:normal;font-size:22.57777786px;font-family:Erasaur;-inkscape-font-specification:Erasaur;letter-spacing:0.79374999px;stroke-width:1px"
           d="m 68.35465,35.106165 c 0.80014,2.358061 0.796044,1.355962 2.399179,7.517763 0.284244,1.092518 0.328484,1.710902 0.419442,2.060508 l 0.471845,1.81358 c 0.221711,0.852164 0.675422,1.340685 0.78912,1.777692 0.01705,0.06555 0.03411,0.131102 0.02931,0.202338 l 0.81113,0.06892 c 0,0 0.725858,-0.258837 0.769559,-0.270207 0.0437,-0.01137 0.509132,-0.01582 0.509132,-0.01582 l 1.159847,-0.115126 c 0,0 2.104559,-0.967479 4.114792,-1.490488 0.284054,-0.0739 0.420842,-0.08616 0.683046,-0.154381 0.852164,-0.22171 1.004227,-0.35459 0.981488,-0.441992 -0.01137,-0.0437 -0.08829,-0.07035 -0.09966,-0.114047 0.02185,-0.0057 0.06022,-0.575573 0.02042,-0.728525 -0.02842,-0.109252 -0.113697,-0.437007 -0.362054,-1.212251 -0.146917,-0.475023 -0.34446,-0.516945 -0.475562,-0.482836 -0.06555,0.01705 -0.125417,0.05596 -0.147267,0.06164 -0.02185,0.0057 -0.114937,0.0066 -0.180488,0.02363 -0.06555,0.01705 -0.103567,0.05027 -0.141583,0.08349 -0.07035,0.08829 -1.220953,0.597612 -1.471787,0.709532 -0.250835,0.111919 -1.304448,0.456029 -1.588502,0.529932 -0.808464,0.210341 -1.232862,-0.07584 -1.477662,-0.47874 -0.170546,-0.655511 -0.649665,-1.510692 -1.14406,-2.245252 l 0.572366,-0.848797 1.279929,-0.729603 1.461846,-0.03039 c 0,0 1.199992,-0.498841 1.243692,-0.510211 0.0437,-0.01137 0.06803,-0.904217 0.06803,-0.904217 L 78.818012,38.379538 C 78.644448,37.981436 78.395203,37.113106 78.24225,37.1529 c -0.305905,0.07959 -1.753174,1.062694 -3.217148,1.443581 -1.245471,0.324038 -1.585485,0.272524 -2.00242,0.194364 0,0 -0.186712,-0.627975 -0.198082,-0.671676 -0.01137,-0.0437 -0.340743,-1.847689 -0.369167,-1.956941 -0.02274,-0.0874 -0.420142,-0.987173 -0.52247,-1.380479 -0.05685,-0.218504 -0.05116,-0.196654 0.18919,-0.259187 0.458858,-0.119383 1.492399,-0.271635 1.623501,-0.305745 0.152952,-0.03979 1.326298,-0.461714 1.326298,-0.461714 l 1.019504,-0.475212 0.647158,-0.471656 -0.206784,-0.436118 -0.420681,-1.616926 -2.731295,0.710609 -5.479994,1.892337 z" />
        <path
           inkscape:connector-curvature="0"
           id="path2159"
           style="font-style:normal;font-variant:normal;font-weight:normal;font-stretch:normal;font-size:22.57777786px;font-family:Erasaur;-inkscape-font-specification:Erasaur;letter-spacing:0.79374999px;stroke-width:1px"
           d="m 84.443349,45.603279 c 0.0064,0.0447 0.140478,0.02561 0.34165,-0.003 0.37999,-0.0541 0.97714,-0.184729 0.97714,-0.184729 l 0.699288,-0.05395 c 0,0 0.533199,0.06092 0.689665,0.03864 0.357638,-0.05092 0.389689,-0.306341 0.389689,-0.306341 l -0.07319,-0.514104 c -0.117747,-0.827038 -0.02508,-0.977064 -0.09191,-1.446464 l -0.22913,-1.609371 c -0.05728,-0.402343 -0.388703,-1.769096 -0.420527,-1.992619 -0.03182,-0.223524 0.03205,-0.255424 0.03205,-0.255424 l 0.91031,-0.654128 c 0,0 0.47531,0.935769 0.551838,1.152928 0.229585,0.651477 1.301968,1.616266 1.936624,3.190707 0.143509,0.367261 0.791197,1.392516 1.448735,1.846231 0,0 1.529509,-0.149343 1.954204,-0.209808 0.424695,-0.06047 1.526402,-0.331345 1.526402,-0.331345 -0.02546,-0.178819 -0.325511,-0.364154 -0.797714,-1.117922 -0.915689,-1.466013 -1.474195,-2.02505 -2.629471,-3.251703 -0.18829,-0.201247 -0.730733,-0.96782 -1.129665,-1.367132 -0.66701,-0.680422 -1.621494,-1.137472 -1.637406,-1.249234 -0.0032,-0.02235 0.01917,-0.02553 0.03834,-0.05107 0,0 0.929177,-0.04107 1.219758,-0.08244 1.028209,-0.146389 1.264766,-0.727399 2.880956,-1.869718 0.642006,-0.456291 0.929632,-0.998961 1.239535,-1.385165 0.214052,-0.258529 0.169575,-0.731111 0.10911,-1.155807 -0.101835,-0.715276 -0.503799,-1.456238 -1.148229,-2.618789 -0.877349,-1.517082 -1.723481,-1.533449 -2.224628,-1.849792 -0.124492,-0.0735 -1.76258,0.11411 -1.883889,0.06296 -0.533122,-0.220569 -1.641042,-0.313691 -2.356318,-0.211856 -2.279943,0.324601 -2.216144,0.452351 -2.992188,0.768087 l -1.970191,0.257695 c 0.379611,0.744145 0.656856,1.890557 0.809609,2.963471 0.05092,0.357638 0.01576,0.43106 0.04758,0.654583 0.04455,0.312934 0.191169,0.862196 0.242087,1.219834 0.06047,0.424695 0.401736,1.219909 0.551307,2.270471 0.200489,1.408199 -0.02001,1.781673 -0.03614,2.148858 -0.01932,0.344833 0.110928,1.740227 0.04372,2.069072 -0.06721,0.328845 0.0058,1.162248 -0.01015,1.210135 -0.01917,0.02553 0.02152,1.752956 0.03107,1.820014 0.06046,0.424695 0.966531,1.9833 0.960091,2.098244 z m 1.031397,-13.579256 c 0.08941,-0.01273 0.47281,-0.523424 0.47281,-0.523424 l 3.333838,-0.771117 c 0.408631,0.147071 1.027906,0.492207 1.069276,0.782788 0.194124,1.363495 0.139493,2.101047 0.09146,2.404358 l -0.887807,0.331648 c -0.03516,0.07342 -1.957613,0.666403 -2.248194,0.707773 -0.871743,0.124112 -0.836433,-0.268607 -1.072383,-0.964789 -0.146692,-0.389613 -0.689134,-1.156186 -0.752782,-1.603234 -0.02864,-0.201171 -0.03175,-0.383173 -0.0062,-0.364003 z" />
        <path
           inkscape:connector-curvature="0"
           id="path2161"
           style="font-style:normal;font-variant:normal;font-weight:normal;font-stretch:normal;font-size:22.57777786px;font-family:Erasaur;-inkscape-font-specification:Erasaur;letter-spacing:0.79374999px;stroke-width:1px"
           d="m 97.809488,43.045743 -0.0057,0.97109 c 0,0 2.819832,-0.162045 2.864972,-0.162831 0.0451,-7.87e-4 0.70665,-0.915563 0.79419,-1.075157 0.0875,-0.159594 0.12813,-1.718404 0.12813,-1.718404 l 0.21158,-0.81661 c 0.29307,-0.02769 1.17347,-0.04303 1.69268,-0.05208 -0.0226,3.93e-4 1.22177,0.136777 1.92511,0.327752 l 1.9414,-0.03383 c 0.18885,0.470914 0.65332,1.208 0.75149,1.657914 0.27507,1.530728 0.52771,1.774719 3.16891,1.728693 0.0677,-0.0012 0.13505,-0.02493 0.13348,-0.115232 -0.009,-0.51921 -0.0695,-1.398823 -0.6516,-2.404834 -0.7448,-1.27415 -1.68318,-3.290106 -2.17612,-4.365414 -0.21144,-0.470521 -0.4898,-0.894713 -0.63508,-1.456711 -0.14528,-0.561999 -0.21773,-0.831711 -0.64177,-1.840476 -0.42404,-1.008765 -0.72419,-1.387415 -0.89205,-1.94902 -0.16785,-0.561605 -0.68809,-1.907412 -0.85004,-2.130401 -0.46251,-0.624215 -0.46959,-1.030553 -1.18277,-1.785886 -0.66685,-0.688397 -0.46722,-0.895106 -1.73138,-0.873077 -0.24832,0.0043 -0.47328,0.05341 -0.53903,0.167462 -0.5922,1.003893 -0.80684,4.236745 -0.97288,5.075143 -0.0626,0.294647 0.0222,-0.02297 -0.25201,1.08829 -0.27419,1.111257 -0.475,1.250243 -0.61807,2.110822 -0.14307,0.860579 -0.0298,0.881187 -0.372904,1.925901 -0.364488,1.112831 -0.774912,2.1813 -0.797486,2.181693 3.93e-4,0.02257 0.02336,0.04476 0.02375,0.06733 0.0031,0.180594 -0.759812,1.751993 -0.781207,1.820109 z m 4.933772,-5.844184 c -0.0193,-1.106143 0.64536,-1.840324 0.88306,-2.454159 0.0432,-0.113658 0.37589,-0.458174 0.64679,-0.462895 0.27089,-0.0047 0.79443,0.23455 0.86451,0.368816 0.51394,0.984617 0.9217,2.354965 1.24876,2.981539 -0.3398,-0.06182 -0.74731,-0.122465 -0.74731,-0.122465 l -1.02033,1.056516 c 0,0 -1.16914,0.291348 -1.28202,0.293315 -0.18059,0.0031 -0.95205,-0.209221 -1.06532,-0.229829 0.2163,-0.545718 0.47422,-1.295392 0.47186,-1.430838 z" />
        <path
           inkscape:connector-curvature="0"
           id="path2163"
           style="font-style:normal;font-variant:normal;font-weight:normal;font-stretch:normal;font-size:22.57777786px;font-family:Erasaur;-inkscape-font-specification:Erasaur;letter-spacing:0.79374999px;stroke-width:1px"
           d="m 113.93259,43.759081 c -0.005,0.04492 0.13018,0.05866 0.33234,0.07927 0.38184,0.03893 0.99287,0.05584 0.99287,0.05584 l 0.69173,0.115913 c 0,0 0.50287,0.187439 0.6601,0.203469 0.35938,0.03664 0.45195,-0.203564 0.45195,-0.203564 l 0.0527,-0.516611 c 0.0847,-0.83107 0.21078,-0.954388 0.25887,-1.426076 l 0.16488,-1.617216 c 0.0412,-0.404305 0.0484,-1.810648 0.0713,-2.035261 0.0229,-0.224614 0.0926,-0.240205 0.0926,-0.240205 l 1.04097,-0.41585 c 0,0 0.23616,1.022649 0.25818,1.251843 0.0661,0.68758 0.87477,1.882077 1.11191,3.562975 0.0509,0.391003 0.43285,1.541989 0.96188,2.140602 0,0 1.5205,0.223105 1.94727,0.266616 0.42677,0.04351 1.56128,0.0457 1.56128,0.0457 0.0183,-0.17969 -0.22831,-0.431784 -0.50525,-1.277033 -0.536,-1.643284 -0.94357,-2.320292 -1.76972,-3.788905 -0.13433,-0.240643 -0.47636,-1.115223 -0.76748,-1.598801 -0.48367,-0.820936 -1.30013,-1.494241 -1.28868,-1.606548 0.002,-0.02246 0.0248,-0.02017 0.0495,-0.04034 0,0 0.91175,0.183737 1.20375,0.213507 1.03322,0.105341 1.40264,-0.401671 3.24623,-1.121503 0.73294,-0.288391 1.1427,-0.7459 1.53643,-1.04618 0.26998,-0.199423 0.34053,-0.668821 0.38404,-1.095587 0.0733,-0.718763 -0.13857,-1.53468 -0.4843,-2.818144 -0.4865,-1.683627 -1.30383,-1.903126 -1.71413,-2.330769 -0.10314,-0.101296 -1.73824,-0.31339 -1.84368,-0.392224 -0.46438,-0.342378 -1.51733,-0.699374 -2.2361,-0.772655 -2.29105,-0.233582 -2.25987,-0.09423 -3.08909,0.02548 l -1.97431,-0.223983 c 0.18939,0.813627 0.18261,1.993067 0.0727,3.071211 -0.0366,0.359382 -0.0884,0.422185 -0.11133,0.646799 -0.0321,0.314459 -0.0219,0.882862 -0.0586,1.242244 -0.0435,0.426765 0.0964,1.280735 -0.0113,2.336418 -0.14427,1.415065 -0.44815,1.724504 -0.55218,2.077016 -0.10173,0.33005 -0.3111,1.715783 -0.45546,2.018792 -0.14437,0.303008 -0.27402,1.129498 -0.30107,1.172131 -0.0247,0.02017 -0.40094,1.706623 -0.40781,1.774007 -0.0435,0.426765 0.46087,2.157605 0.42696,2.267622 z m 4.26879,-12.932028 c 0.0898,0.0092 0.58487,-0.394266 0.58487,-0.394266 l 3.42144,0.0538 c 0.36123,0.241082 0.87925,0.725098 0.84948,1.017096 -0.13969,1.370142 -0.3702,2.072874 -0.48981,2.355712 l -0.94153,0.108261 c -0.0518,0.0628 -2.06045,0.175741 -2.35245,0.145971 -0.87599,-0.08931 -0.74721,-0.461994 -0.8087,-1.194497 -0.0486,-0.413464 -0.39066,-1.288044 -0.34486,-1.737271 0.0206,-0.202152 0.0614,-0.379553 0.0816,-0.354802 z" />
        <path
           inkscape:connector-curvature="0"
           id="path2165"
           style="font-style:normal;font-variant:normal;font-weight:normal;font-stretch:normal;font-size:22.57777786px;font-family:Erasaur;-inkscape-font-specification:Erasaur;letter-spacing:0.79374999px;stroke-width:1px"
           d="m 141.35391,34.90136 c 0,0 0.34054,0.559233 0.38466,0.568825 0.0441,0.0096 1.46284,0.179368 1.6355,-0.08347 0.10935,-0.184174 0.24269,-0.478661 0.32422,-0.853723 0.19184,-0.882501 0.0729,-1.185619 -0.16117,-2.022073 -0.37315,-1.259477 -1.63455,-1.302634 -2.88444,-2.56786 -0.53142,-0.531414 -0.31463,-0.253237 -1.718,-0.812463 -0.38274,-0.152516 -0.77507,-0.260908 -1.12807,-0.337644 -1.03694,-0.225414 -1.94054,-0.213897 -2.20241,-0.178404 -0.86619,0.15828 -3.09449,1.799551 -3.74293,2.444163 -0.35587,0.361636 -0.33477,0.689695 -1.28728,1.776518 -0.33861,0.388493 -0.47482,0.589934 -0.5084,0.744372 -0.0527,0.242687 0.212,0.30024 0.1391,0.95444 -0.10551,1.016793 -0.0729,0.654201 -0.0393,2.094017 0.01,0.487293 9.6e-4,0.739572 -0.0278,0.871947 -0.0432,0.198563 -0.15156,0.05947 -0.16115,0.103599 -0.01,0.04413 0.29257,0.248441 0.81536,0.500717 0.58418,0.288726 0.84125,0.806713 1.77076,1.632611 0.92951,0.825897 0.45468,0.352996 0.83934,0.921822 0.52279,0.783694 0.95446,2.517993 0.87772,2.870993 l 0.005,-0.02206 c -0.0882,-0.01918 -0.97266,0.966919 -2.67147,0.597623 -0.39713,-0.08633 -0.34919,-2.964042 -1.27581,-3.165476 -0.30888,-0.06714 -1.41391,0.870997 -1.61055,1.77556 -0.22062,1.014875 -0.0556,1.743895 -0.0719,1.925191 -0.0297,0.455638 0.28202,1.147246 2.09115,1.540522 0.37506,0.08153 0.91895,0.13045 2.00001,0.365456 0.59569,0.129493 1.90985,0.461381 2.41728,0.57169 0.55157,0.119901 0.68874,0.126614 0.70313,0.06043 0.005,-0.02206 -0.0691,-0.107434 -0.1036,-0.161151 l 0.0221,0.0048 c 0.11031,0.02398 0.84796,-0.393294 1.55972,-0.585146 1.20096,-0.316556 1.67002,-1.092583 1.76115,-1.511771 0.19184,-0.8825 -0.19282,-1.982743 -0.42976,-2.912243 -0.16212,-0.635973 -0.59857,-0.753957 -1.15781,-1.476259 -0.55924,-0.722303 -0.93622,-0.688727 -1.42544,-1.09544 -1.45037,-1.193282 -2.59954,-1.858986 -2.97541,-3.595103 -0.37587,-1.736118 0.24135,-2.665292 0.34783,-2.942512 0.0508,-0.127579 1.34073,-1.042011 1.40883,-1.142731 0.0681,-0.100721 1.39186,-0.344376 1.39186,-0.344376 l 1.63262,0.354907 c 0.28681,0.06235 1.55397,0.823016 1.68923,0.944838 0.13525,0.121822 0.84605,0.784651 0.84605,0.784651 0.38849,0.338608 1.0211,0.936905 0.92038,1.400218 z"
           sodipodi:nodetypes="cccccccccccccccccscccscsccccccccccscccccccccc" />
        <path
           inkscape:connector-curvature="0"
           id="path2167"
           style="font-style:normal;font-variant:normal;font-weight:normal;font-stretch:normal;font-size:22.57777786px;font-family:Erasaur;-inkscape-font-specification:Erasaur;letter-spacing:0.79374999px;stroke-width:1px"
           d="m 148.10631,33.168426 c 0,0 5.5e-4,0.0714 -0.0273,0.157293 -0.0767,0.236219 -0.83995,2.148566 -1.30705,3.587355 -0.0349,0.107372 -0.60958,2.389518 -0.6305,2.453941 -0.0209,0.06442 -0.26126,2.19401 -0.31006,2.344331 l -0.43921,1.352891 c 0,0 -0.14585,0.522359 -0.21556,0.737104 -0.3207,0.987825 -1.85312,3.148959 -2.18776,4.179734 -0.0906,0.279168 -0.16452,0.872362 -0.16452,0.872362 0,0 2.02557,0.633857 2.06852,0.6478 0.0429,0.01394 0.80321,0.45066 0.975,0.506433 0.1718,0.05577 2.04064,0.733698 2.19096,0.782499 l 0.73013,0.237035 c 0.79455,0.257949 1.73078,0.37199 2.71861,0.692684 l 1.63205,0.529842 0.33607,0.06162 c 0,0 0.26548,-0.744635 0.43977,-1.281496 0.18126,-0.558336 0.60734,-2.675098 0.41407,-2.737843 -0.0215,-0.007 -1.46779,-0.52399 -1.46779,-0.52399 l -2.03784,-0.376723 -0.0139,0.04295 c -0.12549,0.386541 -2.90964,-0.469848 -3.23761,-0.410158 0.44649,-0.424756 1.20334,-2.244233 1.46826,-3.060263 0.45315,-1.39584 0.48852,-3.259642 0.84408,-4.35484 0.28583,-0.880453 0.70271,-3.26132 0.68123,-3.268292 0.13943,-0.429489 0.35194,-0.645353 0.50531,-1.117792 0.0209,-0.06442 0.0298,-0.749927 0.0298,-0.749927 l -0.123,-0.206094 -0.71731,-0.422774 -0.47243,-0.153375 -0.59849,0.16177 c 0,0 -0.007,0.02147 -0.0499,0.0075 -0.23622,-0.07669 -1.0492,-0.862848 -1.04223,-0.884323 0,0 -0.0343,0.178768 0.009,0.192711 z" />
        <path
           inkscape:connector-curvature="0"
           id="path2169"
           style="font-style:normal;font-variant:normal;font-weight:normal;font-stretch:normal;font-size:22.57777786px;font-family:Erasaur;-inkscape-font-specification:Erasaur;letter-spacing:0.79374999px;stroke-width:1px"
           d="m 160.58067,39.9389 c -0.79469,2.359905 -0.18993,1.560847 -2.65417,7.431569 -0.43692,1.040908 -0.77695,1.559306 -0.91677,1.892396 l -0.72529,1.727908 c -0.3408,0.811908 -0.27654,1.475518 -0.45131,1.891882 -0.0262,0.06245 -0.0524,0.124909 -0.0995,0.178625 l 0.60295,0.546924 c 0,0 0.73404,0.234653 0.77567,0.252129 0.0416,0.01748 0.41431,0.296337 0.41431,0.296337 l 0.99182,0.612205 c 0,0 2.25992,0.507855 4.1752,1.31179 0.27063,0.1136 0.3868,0.186849 0.63662,0.29171 0.81191,0.340799 1.01341,0.327434 1.04836,0.244161 0.0175,-0.04164 -0.0275,-0.109488 -0.01,-0.151124 0.0208,0.0087 0.39708,-0.42099 0.45825,-0.566718 0.0437,-0.10409 0.17477,-0.416363 0.44772,-1.183293 0.17142,-0.466738 0.0398,-0.619919 -0.0851,-0.672349 -0.0625,-0.02622 -0.13364,-0.03161 -0.15446,-0.04035 -0.0208,-0.0087 -0.0953,-0.06451 -0.15781,-0.09073 -0.0624,-0.02622 -0.11283,-0.02287 -0.1632,-0.01953 -0.10949,0.0275 -1.33313,-0.26575 -1.60043,-0.328975 -0.26729,-0.06323 -1.3136,-0.428953 -1.58424,-0.542553 -0.77027,-0.323322 -0.93399,-0.808307 -0.88413,-1.277101 0.26216,-0.624545 0.40017,-1.59503 0.45286,-2.478902 l 0.96997,-0.327438 1.46009,0.196612 1.18047,0.862794 c 0,0 1.25654,0.331545 1.29818,0.349022 0.0416,0.01748 0.6027,-0.67749 0.6027,-0.67749 l 0.3025,-0.779011 c 0.10358,-0.42176 0.4323,-1.263225 0.28657,-1.324394 -0.29146,-0.122338 -2.03838,-0.218971 -3.4332,-0.804446 -1.18663,-0.498091 -1.42566,-0.745338 -1.70966,-1.060437 0,0 0.2326,-0.612465 0.25008,-0.654101 0.0175,-0.04164 0.85019,-1.675477 0.89389,-1.779568 0.035,-0.08327 0.26498,-1.039622 0.42227,-1.414349 0.0874,-0.208182 0.0786,-0.187364 0.30764,-0.09124 0.43718,0.183507 1.35113,0.689566 1.47604,0.741996 0.14572,0.06117 1.33441,0.437692 1.33441,0.437692 l 1.09874,0.24082 0.8006,0.01773 0.10023,-0.472135 0.64665,-1.540544 -2.60227,-1.092304 -5.50422,-1.820675 z" />
        <path
           inkscape:connector-curvature="0"
           id="path2171"
           style="font-style:normal;font-variant:normal;font-weight:normal;font-stretch:normal;font-size:22.57777786px;font-family:Erasaur;-inkscape-font-specification:Erasaur;letter-spacing:0.79374999px;stroke-width:1px"
           d="m 181.22818,49.312842 c 0.0618,-0.120553 0.58024,-1.478545 0.8583,-2.021036 0.0618,-0.120553 0.10299,-0.200922 0.13338,-0.210716 l -2.64137,-1.42997 -0.53552,1.044796 c -0.0206,0.04019 -0.1982,0.634167 -0.21879,0.674352 -0.0206,0.04018 -0.68849,1.194731 -0.68849,1.194731 l -1.51387,2.953559 c -0.29865,0.582675 -0.57823,1.276614 -0.80479,1.718644 -0.36045,0.703228 -0.52249,1.761855 -0.77995,2.264161 -0.62821,1.225627 -0.97079,1.151519 -1.67028,1.427259 -1.39898,0.551481 -1.47884,0.459804 -2.54373,-0.08601 -0.38175,-0.19567 -0.46212,-0.236864 -0.46111,-0.33783 -0.0156,-0.464645 0.19092,-0.916972 1.00853,-2.908123 0.71413,-1.739745 0.45616,-1.186956 -0.074,-1.687038 0,0 -0.75522,-0.209501 -0.89688,-0.180624 -0.14165,0.02888 -1.21987,-0.193952 -1.33113,-0.174869 -0.11127,0.01908 -0.35793,0.450814 -0.58449,0.892843 -0.75179,1.466734 -0.51018,1.539832 -1.49509,4.104873 -0.51846,1.357992 -0.10783,1.695318 0.45476,1.983674 1.42655,0.73119 2.4254,0.811858 2.92771,1.069319 0.14064,0.07209 1.79901,0.845987 2.30232,1.002482 0.50332,0.156496 0.65881,-0.245854 1.0132,-0.343287 0.85043,-0.223743 0.98956,-2.06e-4 1.60747,-1.20574 0.43253,-0.843874 1.03035,-2.059707 1.25691,-2.501736 0.33985,-0.663044 1.57537,-2.034063 1.79012,-2.304552 0.0716,-0.09016 0.20546,-0.351361 0.37024,-0.672837 0.32955,-0.642952 0.75229,-1.517217 0.78319,-1.577493 0.0515,-0.100461 1.66128,-2.548182 1.73337,-2.688828 z" />
        <path
           inkscape:connector-curvature="0"
           id="path2173"
           style="font-style:normal;font-variant:normal;font-weight:normal;font-stretch:normal;font-size:22.57777786px;font-family:Erasaur;-inkscape-font-specification:Erasaur;letter-spacing:0.79374999px;stroke-width:1px"
           d="m 177.29336,63.413814 c -0.0241,0.0382 0.0905,0.110424 0.26245,0.218755 0.32473,0.204626 0.86454,0.491417 0.86454,0.491417 l 0.56808,0.411345 c 0,0 0.36712,0.391456 0.50083,0.475714 0.30562,0.192589 0.49533,0.01858 0.49533,0.01858 l 0.27685,-0.439337 c 0.44536,-0.706759 0.61309,-0.761185 0.86586,-1.162318 l 0.86666,-1.375315 c 0.21666,-0.343829 0.84833,-1.600349 0.9687,-1.791365 0.12037,-0.191016 0.18971,-0.174007 0.18971,-0.174007 l 1.11732,0.09028 c 0,0 -0.2431,1.021022 -0.32526,1.236112 -0.2465,0.645269 -0.0531,2.074757 -0.588,3.685836 -0.12822,0.372875 -0.29779,1.573663 -0.09,2.345059 0,0 1.2628,0.875808 1.62573,1.104507 0.36293,0.2287 1.3782,0.735033 1.3782,0.735033 0.0963,-0.152813 -0.0126,-0.488271 0.11514,-1.368517 0.25043,-1.710254 0.18632,-2.497872 0.0992,-4.180652 -0.0133,-0.275274 0.0691,-1.210733 0.0233,-1.773317 -0.0683,-0.950375 -0.50029,-1.916452 -0.44011,-2.01196 0.012,-0.0191 0.0311,-0.0071 0.0623,-0.01413 0,0 0.73502,0.569916 0.98334,0.726395 0.87867,0.553693 1.43498,0.26377 3.40638,0.438578 0.78473,0.06752 1.35517,-0.16013 1.84135,-0.254065 0.33048,-0.05861 0.60236,-0.447708 0.83106,-0.810638 0.38518,-0.611251 0.55814,-1.436286 0.81904,-2.739647 0.3127,-1.724383 -0.32184,-2.284355 -0.49924,-2.849818 -0.0474,-0.136591 -1.41771,-1.053482 -1.47711,-1.17097 -0.26375,-0.513131 -1.04822,-1.301016 -1.65948,-1.686194 -1.94836,-1.227756 -1.98238,-1.089072 -2.77837,-1.350483 l -1.6689,-1.078342 c -0.19207,0.812998 -0.72248,1.866465 -1.30024,2.783342 -0.19259,0.305626 -0.26691,0.338857 -0.38727,0.529873 -0.16852,0.267422 -0.41213,0.781072 -0.60472,1.086698 -0.2287,0.36293 -0.48305,1.190058 -1.04878,2.087833 -0.75832,1.203401 -1.16809,1.345483 -1.41798,1.614998 -0.23786,0.250414 -1.04145,1.398602 -1.30547,1.605841 -0.26403,0.207238 -0.74759,0.889923 -0.79077,0.91609 -0.0311,0.0071 -1.11785,1.350455 -1.15396,1.407759 -0.2287,0.362931 -0.54637,2.137554 -0.62566,2.221025 z m 9.57289,-9.686056 c 0.0764,0.04815 0.69918,-0.09315 0.69918,-0.09315 l 3.04082,1.569239 c 0.21639,0.37654 0.46523,1.040391 0.30876,1.288711 -0.73425,1.165198 -1.25314,1.692191 -1.48602,1.892365 l -0.8915,-0.321595 c -0.0743,0.03323 -1.92377,-0.758587 -2.17209,-0.915065 -0.74496,-0.469436 -0.46393,-0.746016 -0.19336,-1.429488 0.14025,-0.391976 0.22269,-1.327435 0.46342,-1.709467 0.10833,-0.171914 0.22373,-0.31269 0.23079,-0.281552 z" />
      </g>
      <g
         aria-label="o"
         transform="matrix(0,0.19743277,-0.19743277,0,119.7979,-136.32137)"
         style="font-style:normal;font-variant:normal;font-weight:normal;font-stretch:normal;font-size:16px;line-height:125%;font-family:Verdana;-inkscape-font-specification:Verdana;letter-spacing:0px;word-spacing:0px;fill:#000000;fill-opacity:1;stroke:none;stroke-width:1.34011865px;stroke-linecap:butt;stroke-linejoin:miter;stroke-opacity:1"
         id="flowRoot2143">
        <path
           d="m 811.35092,88.530986 c -0.0373,0.224 0.97066,2.912 1.232,3.136 1.19466,1.045334 1.53066,2.053334 2.61333,3.210667 1.26933,1.344 2.016,1.941333 3.28533,2.165333 0.224,0.03733 2.65067,0.373333 3.024,0.373333 0.37334,0 4.18134,-0.448 4.18134,-0.448 0.29866,-0.896 0.14933,-1.567999 1.82933,-5.263999 0.74667,-1.642667 1.38133,-4.517334 1.38133,-5.152 0,-0.485334 0.18667,-1.493333 0.18667,-2.613333 0,-1.904 -0.672,-3.658667 -0.70933,-4.853334 -0.0373,-0.970666 -0.896,-2.576 -1.19467,-4.106666 -0.29867,-1.530667 -1.232,-3.397333 -1.26933,-3.733333 -0.0373,-0.336 -1.456,-1.568 -1.456,-1.568 0,-0.03733 -2.16534,-0.448 -2.464,-0.448 -0.29867,0.03733 -3.06134,0 -3.28534,0.186666 -0.224,0.186667 -2.20266,0.672 -2.76266,1.306667 -0.56,0.634667 -2.09067,1.306667 -2.464,2.277333 -0.672,1.754667 -1.49334,3.845333 -1.53067,6.570667 -0.0373,1.792 -0.0373,2.762666 -0.0373,3.434666 0,0.672 -0.41067,1.344 -0.41067,1.904 0,1.269333 -0.18667,1.568 -0.18667,2.314667 0,0.112 0,0.410666 0.0373,0.709333 l -0.224,0.112 c 0,0 0.224,0.336 0.224,0.485333 z m 3.584,-2.799999 c 0.0747,-0.410667 0.26133,-0.672 0.448,-1.418667 0.112,-0.597333 0.784,-1.978667 0.896,-2.426667 l 0.0373,0.03733 v -0.709334 c 0,-0.784 -0.0373,-1.269333 -0.0373,-1.68 0,-0.784 0.26133,-1.866666 0.784,-3.061333 0.448,-1.008 0.0747,-1.829333 1.53066,-2.202666 1.008,-0.261334 0.97067,-0.597334 1.15734,-0.597334 0.63466,0 2.24,1.157334 2.31466,1.157334 0.18667,0.261333 0.52267,0.821333 0.63467,1.232 0.112,0.410666 0.26133,-0.373334 0.63467,1.381333 0.37333,1.754666 0.63466,1.904 0.82133,2.912 0.224,1.269333 0.70933,4.106666 0.70933,5.152 0,0.634666 -0.112,1.978666 -0.14933,2.351999 v 0.448 c 0,0.522667 -0.56,2.576 -0.672,2.725334 h 0.0373 c 0,0.410666 -2.05333,3.136 -2.27733,3.210666 -0.336,0.112 -0.70933,0.373334 -1.19467,0.373334 -1.38133,0 -3.65866,-2.650667 -3.65866,-2.949334 0,-0.149333 0.0373,-0.336 0.0373,-0.56 0,-0.56 -0.56,-1.530666 -0.56,-1.605333 l -0.224,-0.448 c -0.0373,-0.112 -0.41067,-0.522667 -0.52267,-0.672 l -1.456,-1.381333 c 0.26134,-0.373334 0.63467,-0.858667 0.70934,-1.269333 z"
           style="font-style:normal;font-variant:normal;font-weight:normal;font-stretch:normal;font-size:37.33333206px;font-family:Erasaur;-inkscape-font-specification:Erasaur;stroke-width:1.34011865px"
           id="path1011"
           inkscape:connector-curvature="0" />
      </g>
    </g>
  </g>
</svg>
